<?xml version="1.0" encoding="utf-8"?>
<!-- Generator: Adobe Illustrator 21.1.0, SVG Export Plug-In . SVG Version: 6.00 Build 0)  -->
<svg version="1.1" id="Camada_1" xmlns="http://www.w3.org/2000/svg" xmlns:xlink="http://www.w3.org/1999/xlink" x="0px" y="0px"
	 viewBox="0 0 700 524" style="enable-background:new 0 0 700 524;" xml:space="preserve">
<style type="text/css">
	.st0{clip-path:url(#SVGID_2_);}
	.st1{fill:#FF0000;}
	.st2{fill:#4F3A07;}
	.st3{fill:none;stroke:#000000;stroke-width:5;stroke-linecap:round;stroke-linejoin:round;stroke-miterlimit:10;}
	.st4{fill:none;}
</style>
<g>
	<defs>
		<polygon id="SVGID_1_" points="202.2,374.4 9.6,374.4 9.6,49 180.4,49.1 202.2,49 		"/>
	</defs>
	<clipPath id="SVGID_2_">
		<use xlink:href="#SVGID_1_"  style="overflow:visible;"/>
	</clipPath>
	<g class="st0">
		<g>
			<g>
				<g>
					<path class="st1" d="M416.5,335.7l-66.2-66.2l66.2-66.2l66.2,66.2L416.5,335.7z M366.4,269.5l50.1,50.1l50.1-50.1l-50.1-50.1
						L366.4,269.5z"/>
				</g>
			</g>
		</g>
		<g>
			<g>
				<g>
					<path class="st1" d="M416.5,302.7l-33.2-33.2l33.2-33.2l33.2,33.2L416.5,302.7z M391.3,269.5l25.1,25.1l25.1-25.1l-25.1-25.1
						L391.3,269.5z"/>
				</g>
			</g>
		</g>
		<g>
			<g>
				<g>
					
						<rect x="411" y="265.1" transform="matrix(0.7071 -0.7071 0.7071 0.7071 -68.8855 372.6553)" class="st1" width="8.8" height="8.8"/>
				</g>
			</g>
		</g>
		<g>
			<g>
				<g>
					<path class="st1" d="M478,397.4l-66.2-66.2L478,265l66.2,66.2L478,397.4z M427.9,331.2l50.1,50.1l50.1-50.1L478,281
						L427.9,331.2z"/>
				</g>
			</g>
		</g>
		<g>
			<g>
				<g>
					<path class="st1" d="M478,364.4l-33.2-33.2L478,298l33.2,33.2L478,364.4z M453,331.2l25.1,25.1l25.1-25.1L478,306.1L453,331.2z
						"/>
				</g>
			</g>
		</g>
		<g>
			<g>
				<g>
					
						<rect x="472.5" y="326.6" transform="matrix(0.7071 -0.7071 0.7071 0.7071 -94.3771 434.1414)" class="st1" width="8.8" height="8.8"/>
				</g>
			</g>
		</g>
		<g>
			<g>
				<g>
					<path class="st1" d="M474.6,277.6l-66.2-66.2l66.2-66.2l66.2,66.2L474.6,277.6z M424.5,211.4l50.1,50.1l50.1-50.1l-50.1-50.1
						L424.5,211.4z"/>
				</g>
			</g>
		</g>
		<g>
			<g>
				<g>
					<path class="st1" d="M474.6,244.6l-33.2-33.2l33.2-33.2l33.2,33.2L474.6,244.6z M449.6,211.4l25.1,25.1l25.1-25.1l-25.1-25.1
						L449.6,211.4z"/>
				</g>
			</g>
		</g>
		<g>
			<g>
				<g>
					
						<rect x="469.1" y="207" transform="matrix(0.7071 -0.7071 0.7071 0.7071 -10.8153 396.7308)" class="st1" width="8.8" height="8.8"/>
				</g>
			</g>
		</g>
		<g>
			<g>
				<g>
					<path class="st1" d="M536.1,339.1l-66.2-66.2l66.2-66.2l66.2,66.2L536.1,339.1z M486.2,272.9l50.1,50.1l50.1-50.1l-50.1-50.1
						L486.2,272.9z"/>
				</g>
			</g>
		</g>
		<g>
			<g>
				<g>
					<path class="st1" d="M536.1,306.1L503,272.9l33.2-33.2l33.2,33.2L536.1,306.1z M511.1,272.9l25.1,25.1l25.1-25.1l-25.1-25.1
						L511.1,272.9z"/>
				</g>
			</g>
		</g>
		<g>
			<g>
				<g>
					
						<rect x="530.5" y="268.5" transform="matrix(0.7071 -0.7071 0.7071 0.7071 -36.3069 458.2169)" class="st1" width="8.8" height="8.8"/>
				</g>
			</g>
		</g>
		<g>
			<g>
				<g>
					<path class="st1" d="M532.7,219.5l-66.2-66.2l66.2-66.2l66.2,66.2L532.7,219.5z M482.7,153.3l50.1,50.1l50.1-50.1l-50.3-50.1
						L482.7,153.3z"/>
				</g>
			</g>
		</g>
		<g>
			<g>
				<g>
					<path class="st1" d="M532.7,186.5l-33.2-33.2l33.2-33.2l33.2,33.2L532.7,186.5z M507.7,153.3l25.1,25.1l25.1-25.1l-25.1-25.1
						L507.7,153.3z"/>
				</g>
			</g>
		</g>
		<g>
			<g>
				<g>
					
						<rect x="527.1" y="148.7" transform="matrix(0.7071 -0.7071 0.7071 0.7071 47.38 420.7055)" class="st1" width="8.8" height="8.8"/>
				</g>
			</g>
		</g>
		<g>
			<g>
				<g>
					<path class="st1" d="M594.4,281l-66.2-66.2l66.2-66.2l66.2,66.2L594.4,281z M544.3,214.8l50.1,50.1l50.1-50.1l-50.1-50.1
						L544.3,214.8z"/>
				</g>
			</g>
		</g>
		<g>
			<g>
				<g>
					<path class="st1" d="M594.4,248l-33.2-33.2l33.2-33.2l33.2,33.2L594.4,248z M569.2,214.8l25.1,25.1l25.1-25.1l-25.1-25.1
						L569.2,214.8z"/>
				</g>
			</g>
		</g>
		<g>
			<g>
				<g>
					
						<rect x="588.8" y="210.4" transform="matrix(0.7071 -0.7071 0.7071 0.7071 21.864 482.4174)" class="st1" width="8.8" height="8.8"/>
				</g>
			</g>
		</g>
		<g>
			<g>
				<g>
					<path class="st1" d="M652.5,339.1l-66.2-66.2l66.2-66.2l66.2,66.2L652.5,339.1z M602.4,272.9l50.1,50.1l50.1-50.1l-50.1-50.1
						L602.4,272.9z"/>
				</g>
			</g>
		</g>
		<g>
			<g>
				<g>
					<path class="st1" d="M652.5,306.1l-33.2-33.2l33.2-33.2l33.2,33.2L652.5,306.1z M627.4,272.9l25.1,25.1l25.1-25.1l-25.1-25.1
						L627.4,272.9z"/>
				</g>
			</g>
		</g>
		<g>
			<g>
				<g>
					
						<rect x="646.9" y="268.5" transform="matrix(0.7071 -0.7071 0.7071 0.7071 -2.2114 540.4875)" class="st1" width="8.8" height="8.8"/>
				</g>
			</g>
		</g>
		<g>
			<g>
				<g>
					<path class="st1" d="M714,400.8l-66.2-66.2l66.2-66.2l66.2,66.2L714,400.8z M664,334.6l50.1,50.1l50.1-50.1l-50.1-50.1
						L664,334.6z"/>
				</g>
			</g>
		</g>
		<g>
			<g>
				<g>
					<path class="st1" d="M714,367.8l-33.2-33.2l33.2-33.2l33.2,33.2L714,367.8z M688.9,334.6l25.1,25.1l25.1-25.1L714,309.5
						L688.9,334.6z"/>
				</g>
			</g>
		</g>
		<g>
			<g>
				<g>
					
						<rect x="708.4" y="330" transform="matrix(0.7071 -0.7071 0.7071 0.7071 -27.703 601.9736)" class="st1" width="8.8" height="8.8"/>
				</g>
			</g>
		</g>
		<g>
			<g>
				<g>
					<path class="st1" d="M594.4,397.4l-66.2-66.2l66.2-66.2l66.2,66.2L594.4,397.4z M544.3,331.2l50.1,50.1l50.1-50.1L594.4,281
						L544.3,331.2z"/>
				</g>
			</g>
		</g>
		<g>
			<g>
				<g>
					<path class="st1" d="M594.4,364.4l-33.2-33.2l33.2-33.2l33.2,33.2L594.4,364.4z M569.2,331.2l25.1,25.1l25.1-25.1l-25.1-25.1
						L569.2,331.2z"/>
				</g>
			</g>
		</g>
		<g>
			<g>
				<g>
					
						<rect x="588.7" y="326.7" transform="matrix(0.7071 -0.7071 0.7071 0.7071 -60.3823 516.3705)" class="st1" width="8.8" height="8.8"/>
				</g>
			</g>
		</g>
		<g>
			<g>
				<g>
					<path class="st1" d="M655.9,458.9l-66.2-66.2l66.2-66.2l66.2,66.2L655.9,458.9z M605.8,392.7l50.1,50.1l50.1-50.1l-50.1-50.1
						L605.8,392.7z"/>
				</g>
			</g>
		</g>
		<g>
			<g>
				<g>
					<path class="st1" d="M655.9,425.9l-33.2-33.2l33.2-33.2l33.2,33.2L655.9,425.9z M630.8,392.7l25.1,25.1l25.1-25.1l-25.1-25.1
						L630.8,392.7z"/>
				</g>
			</g>
		</g>
		<g>
			<g>
				<g>
					
						<rect x="650.3" y="388.3" transform="matrix(0.7071 -0.7071 0.7071 0.7071 -85.8983 577.9989)" class="st1" width="8.8" height="8.8"/>
				</g>
			</g>
		</g>
		<g>
			<g>
				<g>
					<path class="st1" d="M536.1,455.5l-66.2-66.2l66.2-66.2l66.2,66.2L536.1,455.5z M486.2,389.3l50.1,50.1l50.1-50.1l-50.1-50.1
						L486.2,389.3z"/>
				</g>
			</g>
		</g>
		<g>
			<g>
				<g>
					<path class="st1" d="M536.1,422.4L503,389.3l33.2-33.2l33.2,33.2L536.1,422.4z M511.1,389.3l25.1,25.1l25.1-25.1l-25.1-25.1
						L511.1,389.3z"/>
				</g>
			</g>
		</g>
		<g>
			<g>
				<g>
					
						<rect x="530.6" y="384.9" transform="matrix(0.7071 -0.7071 0.7071 0.7071 -118.5776 492.3123)" class="st1" width="8.8" height="8.8"/>
				</g>
			</g>
		</g>
		<g>
			<g>
				<g>
					<path class="st1" d="M597.8,517l-66.2-66.2l66.2-66.2l66.2,66.2L597.8,517z M547.7,450.8l50.1,50.1l50.1-50.1l-50.1-50
						L547.7,450.8z"/>
				</g>
			</g>
		</g>
		<g>
			<g>
				<g>
					<path class="st1" d="M597.8,484l-33.2-33.2l33.2-33.2l33.2,33.2L597.8,484z M572.6,450.8l25.1,25.1l25.1-25.1l-25.1-25.1
						L572.6,450.8z"/>
				</g>
			</g>
		</g>
		<g>
			<g>
				<g>
					
						<rect x="592.2" y="446.3" transform="matrix(0.7071 -0.7071 0.7071 0.7071 -143.9685 553.9235)" class="st1" width="8.8" height="8.8"/>
				</g>
			</g>
		</g>
		<g>
			<g>
				<g>
					<path class="st1" d="M591,161.3l-66.2-66.2L591,28.9l66.2,66.2L591,161.3z M540.8,95.1l50.1,50.1l50.1-50.1l-50.1-50
						L540.8,95.1z"/>
				</g>
			</g>
		</g>
		<g>
			<g>
				<g>
					<path class="st1" d="M591,128.3l-33.2-33.2L591,61.9l33.2,33.2L591,128.3z M565.8,95.1l25.2,25.2L616,95.2L591,70.2L565.8,95.1
						z"/>
				</g>
			</g>
		</g>
		<g>
			<g>
				<g>
					
						<rect x="585.3" y="90.8" transform="matrix(0.7071 -0.7071 0.7071 0.7071 105.4085 444.8817)" class="st1" width="8.8" height="8.8"/>
				</g>
			</g>
		</g>
		<g>
			<g>
				<g>
					<path class="st1" d="M652.5,223l-66.2-66.2l66.2-66.2l66.2,66.2L652.5,223z M602.4,156.7l50.1,50.1l50.1-50.1l-50.1-50.1
						L602.4,156.7z"/>
				</g>
			</g>
		</g>
		<g>
			<g>
				<g>
					<path class="st1" d="M652.5,189.9l-33.2-33.2l33.2-33.2l33.2,33.2L652.5,189.9z M627.4,156.7l25.1,25.1l25.1-25.1l-25.1-25.1
						L627.4,156.7z"/>
				</g>
			</g>
		</g>
		<g>
			<g>
				<g>
					
						<rect x="646.9" y="152.3" transform="matrix(0.7071 -0.7071 0.7071 0.7071 79.9342 506.4928)" class="st1" width="8.8" height="8.8"/>
				</g>
			</g>
		</g>
		<g>
			<g>
				<g>
					<path class="st1" d="M649.1,103.2L582.8,37l66.2-66.2L715.3,37L649.1,103.2z M598.9,37l50.1,50.1L699.2,37l-50.1-50.1L598.9,37
						z"/>
				</g>
			</g>
		</g>
		<g>
			<g>
				<g>
					<path class="st1" d="M649.1,70.2L615.9,37l33.2-33.2L682.2,37L649.1,70.2z M623.9,37L648.9,62L674,37l-25.1-25.1L623.9,37z"/>
				</g>
			</g>
		</g>
		<g>
			<g>
				<g>
					
						<rect x="643.5" y="32.6" transform="matrix(0.7071 -0.7071 0.7071 0.7071 163.6211 468.9814)" class="st1" width="8.8" height="8.8"/>
				</g>
			</g>
		</g>
		<g>
			<g>
				<g>
					<path class="st1" d="M710.6,164.7l-66.2-66.2l66.2-66.2l66.2,66.2L710.6,164.7z M660.6,98.5l50.1,50.1l50.1-50.1l-50.3-50
						L660.6,98.5z"/>
				</g>
			</g>
		</g>
		<g>
			<g>
				<g>
					<path class="st1" d="M710.6,131.7l-33.2-33.2l33.2-33.2l33.2,33.2L710.6,131.7z M685.5,98.5l25.1,25.1l25.1-25.1l-25.1-25.1
						L685.5,98.5z"/>
				</g>
			</g>
		</g>
		<g>
			<g>
				<g>
					
						<rect x="705" y="94.1" transform="matrix(0.7071 -0.7071 0.7071 0.7071 138.1295 530.4675)" class="st1" width="8.8" height="8.8"/>
				</g>
			</g>
		</g>
		<g>
			<g>
				<g>
					<path class="st1" d="M707.2,45.1l-66.2-66.2l66.2-66.2l66.2,66.2L707.2,45.1z M657.2-21.1L707.3,29l50.1-50.1l-50.1-50.1
						L657.2-21.1z"/>
				</g>
			</g>
		</g>
		<g>
			<g>
				<g>
					<path class="st1" d="M707.2,12.1L674-21.1l33.2-33.2l33.2,33.2L707.2,12.1z M682.1-21.1l25.1,25.1l25.1-25.1l-25.1-25.2
						L682.1-21.1z"/>
				</g>
			</g>
		</g>
		<g>
			<g>
				<g>
					
						<rect x="701.6" y="-25.5" transform="matrix(0.7071 -0.7071 0.7071 0.7071 221.6912 493.0568)" class="st1" width="8.8" height="8.8"/>
				</g>
			</g>
		</g>
		<g>
			<g>
				<g>
					<path class="st1" d="M768.8,106.6l-66.2-66.2l66.2-66.2L835,40.4L768.8,106.6z M718.7,40.4l50.1,50.1l50.1-50.1L768.8-9.7
						L718.7,40.4z"/>
				</g>
			</g>
		</g>
		<g>
			<g>
				<g>
					<path class="st1" d="M768.8,73.6l-33.2-33.2l33.2-33.2L802,40.4L768.8,73.6z M743.6,40.4l25.2,25.1l25.1-25.1l-25.1-25.1
						L743.6,40.4z"/>
				</g>
			</g>
		</g>
		<g>
			<g>
				<g>
					
						<rect x="763.1" y="36" transform="matrix(0.7071 -0.7071 0.7071 0.7071 196.1996 554.5429)" class="st1" width="8.8" height="8.8"/>
				</g>
			</g>
		</g>
		<g>
			<g>
				<g>
					<path class="st1" d="M826.9,164.7l-66.2-66.2l66.2-66.2l66.2,66.2L826.9,164.7z M776.8,98.5l50.1,50.1L877,98.5l-50.1-50
						L776.8,98.5z"/>
				</g>
			</g>
		</g>
		<g>
			<g>
				<g>
					<path class="st1" d="M826.9,131.7l-33.2-33.2l33.2-33.2l33.2,33.2L826.9,131.7z M801.7,98.5l25.1,25.1l25.1-25.1l-25.1-25.1
						L801.7,98.5z"/>
				</g>
			</g>
		</g>
		<g>
			<g>
				<g>
					
						<rect x="821.3" y="94.1" transform="matrix(0.7071 -0.7071 0.7071 0.7071 172.2248 612.7382)" class="st1" width="8.8" height="8.8"/>
				</g>
			</g>
		</g>
		<g>
			<g>
				<g>
					<path class="st1" d="M888.4,226.4l-66.2-66.2l66.2-66.2l66.2,66.2L888.4,226.4z M838.4,160.2l50.1,50.1l50-50.1L888.4,110
						L838.4,160.2z"/>
				</g>
			</g>
		</g>
		<g>
			<g>
				<g>
					<path class="st1" d="M768.8,223l-66.2-66.2l66.2-66.2l66.2,66.2L768.8,223z M718.7,156.7l50.1,50.1l50.1-50.1l-50.1-50.1
						L718.7,156.7z"/>
				</g>
			</g>
		</g>
		<g>
			<g>
				<g>
					<path class="st1" d="M768.8,189.9l-33.2-33.2l33.2-33.2l33.2,33.2L768.8,189.9z M743.6,156.7l25.1,25.1l25.1-25.1l-24.9-25.2
						L743.6,156.7z"/>
				</g>
			</g>
		</g>
		<g>
			<g>
				<g>
					
						<rect x="763.1" y="152.4" transform="matrix(0.7071 -0.7071 0.7071 0.7071 113.9289 588.6383)" class="st1" width="8.8" height="8.8"/>
				</g>
			</g>
		</g>
		<g>
			<g>
				<g>
					<path class="st1" d="M830.3,284.5l-66.2-66.2l66.2-66.2l66.2,66.2L830.3,284.5z M780.2,218.3l50.1,50.1l50.1-50.1l-50.1-50.1
						L780.2,218.3z"/>
				</g>
			</g>
		</g>
		<g>
			<g>
				<g>
					<path class="st1" d="M830.3,251.4l-33.2-33.2l33.2-33.2l33.2,33.2L830.3,251.4z M805.1,218.3l25.1,25.1l25.1-25.1l-25.1-25.1
						L805.1,218.3z"/>
				</g>
			</g>
		</g>
		<g>
			<g>
				<g>
					
						<rect x="824.8" y="213.8" transform="matrix(0.7071 -0.7071 0.7071 0.7071 88.538 650.2495)" class="st1" width="8.8" height="8.8"/>
				</g>
			</g>
		</g>
		<g>
			<g>
				<g>
					<path class="st1" d="M710.6,281l-66.2-66.2l66.2-66.2l66.2,66.2L710.6,281z M660.6,214.8l50.1,50.1l50.1-50.1l-50.1-50.1
						L660.6,214.8z"/>
				</g>
			</g>
		</g>
		<g>
			<g>
				<g>
					<path class="st1" d="M710.6,248l-33.2-33.2l33.2-33.2l33.2,33.2L710.6,248z M685.5,214.8l25.1,25.1l25.1-25.1l-25.1-25.1
						L685.5,214.8z"/>
				</g>
			</g>
		</g>
		<g>
			<g>
				<g>
					
						<rect x="705" y="210.4" transform="matrix(0.7071 -0.7071 0.7071 0.7071 55.8587 564.563)" class="st1" width="8.8" height="8.8"/>
				</g>
			</g>
		</g>
		<g>
			<g>
				<g>
					<path class="st1" d="M772.2,342.6L706,276.4l66.2-66.2l66.2,66.2L772.2,342.6z M722.1,276.4l50.1,50.1l50.1-50.1l-50.1-50.1
						L722.1,276.4z"/>
				</g>
			</g>
		</g>
		<g>
			<g>
				<g>
					<path class="st1" d="M772.2,309.5l-33.2-33.2l33.2-33.2l33.2,33.2L772.2,309.5z M747,276.4l25.1,25.1l25.1-25.1l-24.9-25.1
						L747,276.4z"/>
				</g>
			</g>
		</g>
		<g>
			<g>
				<g>
					<path class="st1" d="M356,38.3l-66.2-66.2L356-94.2l66.2,66.2L356,38.3z M306-27.9l50,50l50.1-50.1L356-78.2L306-27.9z"/>
				</g>
			</g>
		</g>
		<g>
			<g>
				<g>
					<path class="st1" d="M356,5.2l-33.2-33.2L356-61.1l33.2,33.2L356,5.2z M331-27.9L356-2.9l25.1-25.1L356-53L331-27.9z"/>
				</g>
			</g>
		</g>
		<g>
			<g>
				<g>
					<path class="st1" d="M414.3,96.4L348,30.1l66.2-66.2l66.2,66.2L414.3,96.4z M364.1,30.1l50.1,50.1l50.1-50.1L414.3-20
						L364.1,30.1z"/>
				</g>
			</g>
		</g>
		<g>
			<g>
				<g>
					<path class="st1" d="M414.3,63.3l-33.2-33.2L414.3-3l33.2,33.2L414.3,63.3z M389,30.1l25.2,25.1l25.1-25.1L414.3,4.9L389,30.1z
						"/>
				</g>
			</g>
		</g>
		<g>
			<g>
				<g>
					
						<rect x="408.7" y="25.7" transform="matrix(0.7071 -0.7071 0.7071 0.7071 99.6963 300.9548)" class="st1" width="8.8" height="8.8"/>
				</g>
			</g>
		</g>
		<g>
			<g>
				<g>
					<path class="st1" d="M475.8,157.9l-66.2-66.2l66.2-66.2L542,91.7L475.8,157.9z M425.6,91.7l50.1,50.1l50.1-50.1l-50.1-50
						L425.6,91.7z"/>
				</g>
			</g>
		</g>
		<g>
			<g>
				<g>
					<path class="st1" d="M475.8,124.8l-33.2-33.2l33.2-33.2l33.2,33.2L475.8,124.8z M450.7,91.7l25.1,25.1l25.1-25.1l-25.1-25.1
						L450.7,91.7z"/>
				</g>
			</g>
		</g>
		<g>
			<g>
				<g>
					
						<rect x="470.2" y="87.2" transform="matrix(0.7071 -0.7071 0.7071 0.7071 74.2047 362.4409)" class="st1" width="8.8" height="8.8"/>
				</g>
			</g>
		</g>
		<g>
			<g>
				<g>
					<path class="st1" d="M356,154.5l-66.2-66.2L356,22l66.2,66.2L356,154.5z M306,88.2l50.1,50.1l50.1-50.1l-50.3-50L306,88.2z"/>
				</g>
			</g>
		</g>
		<g>
			<g>
				<g>
					<path class="st1" d="M356,121.4l-33.2-33.2L356,55.1l33.2,33.2L356,121.4z M331,88.2l25.1,25.1l25.1-25.1L356,63.2L331,88.2z"
						/>
				</g>
			</g>
		</g>
		<g>
			<g>
				<g>
					<path class="st1" d="M417.7,216.1l-66.2-66.2l47.4-47.4l18.8-18.8l66.2,66.2L417.7,216.1z M367.5,149.9l50.1,50.1l50.1-50.1
						l-50.1-50.1L367.5,149.9z"/>
				</g>
			</g>
		</g>
		<g>
			<g>
				<g>
					<path class="st1" d="M417.7,183.1l-33.2-33.2l33.2-33.2l33.2,33.2L417.7,183.1z M392.5,149.9l25.1,25.1l25.2-25.1l-25.1-25.1
						L392.5,149.9z"/>
				</g>
			</g>
		</g>
		<g>
			<g>
				<g>
					
						<rect x="412" y="145.4" transform="matrix(0.7071 -0.7071 0.7071 0.7071 16.0339 338.3237)" class="st1" width="8.8" height="8.8"/>
				</g>
			</g>
		</g>
		<g>
			<g>
				<g>
					
						<rect x="351.6" y="85" transform="matrix(0.7071 -0.7071 0.7071 0.7071 41.0534 277.8929)" class="st1" width="8.8" height="8.8"/>
				</g>
			</g>
		</g>
		<g>
			<g>
				<g>
					
						<rect x="355" y="204.8" transform="matrix(0.7071 -0.7071 0.7071 0.7071 -42.6335 315.4043)" class="st1" width="8.8" height="8.8"/>
				</g>
			</g>
		</g>
		<g>
			<g>
				<g>
					<path class="st1" d="M359.4,274.2L293.2,208l66.2-66.2l66.2,66.2L359.4,274.2z M309.5,208l50.1,50.1l50.1-50.1l-50.1-50.1
						L309.5,208z"/>
				</g>
			</g>
		</g>
		<g>
			<g>
				<g>
					<path class="st1" d="M359.4,241.2L326.3,208l33.2-33.2l33.2,33.2L359.4,241.2z M334.4,208l25.1,25.1l25.1-25.1l-25.1-25.1
						L334.4,208z"/>
				</g>
			</g>
		</g>
		<g>
			<g>
				<g>
					
						<rect x="766.6" y="272.1" transform="matrix(0.7071 -0.7071 0.7071 0.7071 30.3254 626.1497)" class="st1" width="8.8" height="8.8"/>
				</g>
			</g>
		</g>
		<g>
			<g>
				<g>
					<path class="st1" d="M126.8,631.2L60.5,565l66.2-66.2L193,565L126.8,631.2z M76.8,565l50.1,50.1L177,565l-50.1-50.1L76.8,565z"
						/>
				</g>
			</g>
		</g>
		<g>
			<g>
				<g>
					<path class="st1" d="M123.3,511.4l-66.2-66.2l66.2-66.2l66.2,66.2L123.3,511.4z M73.4,445.2l50.1,50.1l50.1-50.1l-50.1-50.1
						L73.4,445.2z"/>
				</g>
			</g>
		</g>
		<g>
			<g>
				<g>
					<path class="st1" d="M185,573.1l-66.2-66.2l66.2-66.2l66.2,66.2L185,573.1z M134.9,506.9l50.1,50l50.1-50.1l-50.1-50
						L134.9,506.9z"/>
				</g>
			</g>
		</g>
		<g>
			<g>
				<g>
					<path class="st1" d="M185,540.1l-33.2-33.2l33.2-33.2l33.2,33.2L185,540.1z M159.8,506.9L185,532l25.1-25.1L185,481.7
						L159.8,506.9z"/>
				</g>
			</g>
		</g>
		<g>
			<g>
				<g>
					
						<rect x="179.3" y="502.5" transform="matrix(0.7071 -0.7071 0.7071 0.7071 -304.6554 278.3715)" class="st1" width="8.8" height="8.8"/>
				</g>
			</g>
		</g>
		<g>
			<g>
				<g>
					<path class="st1" d="M123.8,478.8l-33.2-33.2l33.2-33.2l33.2,33.2L123.8,478.8z M98.6,445.7l25.1,25.1l25.1-25.1l-24.9-25.2
						L98.6,445.7z"/>
				</g>
			</g>
		</g>
		<g>
			<g>
				<g>
					
						<rect x="118.1" y="441.2" transform="matrix(0.7071 -0.7071 0.7071 0.7071 -279.2065 217.1501)" class="st1" width="8.8" height="8.8"/>
				</g>
			</g>
		</g>
		<g>
			<g>
				<g>
					<path class="st1" d="M243.1,631.2L176.9,565l66.2-66.2l66.2,66.2L243.1,631.2z M193,565l50.1,50.1l50.1-50.1l-50.1-50.1
						L193,565z"/>
				</g>
			</g>
		</g>
		<g>
			<g>
				<g>
					<path class="st1" d="M243.1,598.2L209.9,565l33.2-33.2l33.2,33.2L243.1,598.2z M217.9,565L243,590L268,565L243,539.9L217.9,565
						z"/>
				</g>
			</g>
		</g>
		<g>
			<g>
				<g>
					
						<rect x="237.5" y="560.6" transform="matrix(0.7071 -0.7071 0.7071 0.7071 -328.63 336.5667)" class="st1" width="8.8" height="8.8"/>
				</g>
			</g>
		</g>
		<g>
			<g>
				<g>
					<path class="st1" d="M304.6,692.7l-66.2-66.2l66.2-66.2l66.2,66.2L304.6,692.7z M254.6,626.5l50.1,50.1l50.1-50.1l-50.3-50
						L254.6,626.5z"/>
				</g>
			</g>
		</g>
		<g>
			<g>
				<g>
					<path class="st1" d="M185,689.3l-66.2-66.2l66.2-66.2l66.2,66.2L185,689.3z M134.9,623.1l50.1,50.1l50.1-50.1l-50.1-50
						L134.9,623.1z"/>
				</g>
			</g>
		</g>
		<g>
			<g>
				<g>
					<path class="st1" d="M181.6,453.3l-66.2-66.2l66.2-66.2l66.2,66.2L181.6,453.3z M131.5,387.1l50.1,50.1l50.1-50.1L181.6,337
						L131.5,387.1z"/>
				</g>
			</g>
		</g>
		<g>
			<g>
				<g>
					<path class="st1" d="M181.6,420.3l-33.2-33.2l33.2-33.2l33.2,33.2L181.6,420.3z M156.4,387.1l25.2,25.1l25.1-25.1l-25.1-25.1
						L156.4,387.1z"/>
				</g>
			</g>
		</g>
		<g>
			<g>
				<g>
					
						<rect x="175.8" y="382.7" transform="matrix(0.7071 -0.7071 0.7071 0.7071 -220.9684 240.8601)" class="st1" width="8.8" height="8.8"/>
				</g>
			</g>
		</g>
		<g>
			<g>
				<g>
					<path class="st1" d="M243.1,514.9l-66.2-66.2l66.2-66.2l66.2,66.2L243.1,514.9z M193,448.6l50.1,50.1l50.1-50.1l-50.1-50.1
						L193,448.6z"/>
				</g>
			</g>
		</g>
		<g>
			<g>
				<g>
					<path class="st1" d="M243.1,481.8l-33.2-33.2l33.2-33.2l33.2,33.2L243.1,481.8z M217.9,448.6l25.1,25.1l25.1-25.1l-24.9-25.1
						L217.9,448.6z"/>
				</g>
			</g>
		</g>
		<g>
			<g>
				<g>
					
						<rect x="237.5" y="444.2" transform="matrix(0.7071 -0.7071 0.7071 0.7071 -246.3594 302.4713)" class="st1" width="8.8" height="8.8"/>
				</g>
			</g>
		</g>
		<g>
			<g>
				<g>
					<path class="st1" d="M239.7,395.3L173.5,329l66.2-66.2l66.2,66.2L239.7,395.3z M189.6,329l50.1,50.1l50.1-50.1l-50.1-50.1
						L189.6,329z"/>
				</g>
			</g>
		</g>
		<g>
			<g>
				<g>
					<path class="st1" d="M239.7,362.2L206.5,329l33.2-33.2l33.2,33.2L239.7,362.2z M214.5,329l25.1,25.1l25.2-25.1L239.7,304
						L214.5,329z"/>
				</g>
			</g>
		</g>
		<g>
			<g>
				<g>
					
						<rect x="234.1" y="324.6" transform="matrix(0.7071 -0.7071 0.7071 0.7071 -162.7976 265.0606)" class="st1" width="8.8" height="8.8"/>
				</g>
			</g>
		</g>
		<g>
			<g>
				<g>
					<path class="st1" d="M301.2,456.8L235,390.6l66.2-66.2l66.2,66.2L301.2,456.8z M251.2,390.6l50.1,50.1l50.1-50.1l-50.1-50.1
						L251.2,390.6z"/>
				</g>
			</g>
		</g>
		<g>
			<g>
				<g>
					<path class="st1" d="M301.2,423.7L268,390.6l33.2-33.2l33.2,33.2L301.2,423.7z M276.1,390.6l25.1,25.1l25.1-25.1l-25.1-25.1
						L276.1,390.6z"/>
				</g>
			</g>
		</g>
		<g>
			<g>
				<g>
					
						<rect x="295.6" y="386.1" transform="matrix(0.7071 -0.7071 0.7071 0.7071 -188.2892 326.5467)" class="st1" width="8.8" height="8.8"/>
				</g>
			</g>
		</g>
		<g>
			<g>
				<g>
					<path class="st1" d="M297.8,337l-66.2-66.2l66.2-66.2l66.2,66.2L297.8,337z M247.8,270.8l50.1,50.1l50.1-50.1l-50.1-50.1
						L247.8,270.8z"/>
				</g>
			</g>
		</g>
		<g>
			<g>
				<g>
					<path class="st1" d="M297.8,304l-33.2-33.2l33.2-33.2l33.2,33.2L297.8,304z M272.7,270.8l25.1,25.1l25.1-25.1l-25.1-25.1
						L272.7,270.8z"/>
				</g>
			</g>
		</g>
		<g>
			<g>
				<g>
					
						<rect x="292.2" y="266.4" transform="matrix(0.7071 -0.7071 0.7071 0.7071 -104.6023 289.0353)" class="st1" width="8.8" height="8.8"/>
				</g>
			</g>
		</g>
		<g>
			<g>
				<g>
					<path class="st1" d="M359.4,398.7l-66.2-66.2l66.2-66.2l66.2,66.2L359.4,398.7z M309.3,332.5l50.1,50.1l50.1-50.1l-50.1-50.1
						L309.3,332.5z"/>
				</g>
			</g>
		</g>
		<g>
			<g>
				<g>
					<path class="st1" d="M359.4,365.6l-33.3-33.2l33.2-33.2l33.2,33.2L359.4,365.6z M334.2,332.5l25.1,25.1l25.1-25.1l-25.1-25.1
						L334.2,332.5z"/>
				</g>
			</g>
		</g>
		<g>
			<g>
				<g>
					
						<rect x="353.7" y="328.1" transform="matrix(0.7071 -0.7071 0.7071 0.7071 -130.219 350.6221)" class="st1" width="8.8" height="8.8"/>
				</g>
			</g>
		</g>
		<g>
			<g>
				<g>
					<path class="st1" d="M417.5,456.8l-66.2-66.2l66.2-66.2l66.2,66.2L417.5,456.8z M367.4,390.6l50.1,50.1l50.1-50.1l-50.1-50.1
						L367.4,390.6z"/>
				</g>
			</g>
		</g>
		<g>
			<g>
				<g>
					<path class="st1" d="M417.5,423.7l-33.2-33.2l33.2-33.2l33.2,33.2L417.5,423.7z M392.3,390.6l25.1,25.1l25.1-25.1l-25.1-25.1
						L392.3,390.6z"/>
				</g>
			</g>
		</g>
		<g>
			<g>
				<g>
					
						<rect x="412" y="386.1" transform="matrix(0.7071 -0.7071 0.7071 0.7071 -154.1937 408.8174)" class="st1" width="8.8" height="8.8"/>
				</g>
			</g>
		</g>
		<g>
			<g>
				<g>
					<path class="st1" d="M479,518.3l-66.2-66.2l66.2-66.2l66.2,66.2L479,518.3z M429.1,452.1l50.1,50.1l50.1-50.1l-50.1-50.1
						L429.1,452.1z"/>
				</g>
			</g>
		</g>
		<g>
			<g>
				<g>
					<path class="st1" d="M479,485.2l-33.2-33.2l33.2-33.2l33.2,33.2L479,485.2z M454,452.1l25.1,25.1l25.1-25.1L479,427L454,452.1z
						"/>
				</g>
			</g>
		</g>
		<g>
			<g>
				<g>
					
						<rect x="473.4" y="447.6" transform="matrix(0.7071 -0.7071 0.7071 0.7071 -179.6853 470.3034)" class="st1" width="8.8" height="8.8"/>
				</g>
			</g>
		</g>
		<g>
			<g>
				<g>
					<path class="st1" d="M359.4,514.9l-66.2-66.2l66.2-66.2l66.2,66.2L359.4,514.9z M309.3,448.6l50.1,50.1l50.1-50.1l-50.1-50.1
						L309.3,448.6z"/>
				</g>
			</g>
		</g>
		<g>
			<g>
				<g>
					<path class="st1" d="M359.4,481.8l-33.2-33.2l33.2-33.2l33.2,33.2L359.4,481.8z M334.2,448.6l25.1,25.1l25.1-25.1l-24.9-25.1
						L334.2,448.6z"/>
				</g>
			</g>
		</g>
		<g>
			<g>
				<g>
					
						<rect x="353.7" y="444.2" transform="matrix(0.7071 -0.7071 0.7071 0.7071 -212.3646 384.6169)" class="st1" width="8.8" height="8.8"/>
				</g>
			</g>
		</g>
		<g>
			<g>
				<g>
					<path class="st1" d="M420.9,576.5l-66.2-66.2l66.2-66.2l66.2,66.2L420.9,576.5z M370.8,510.3l50.1,50.1l50.1-50.1l-50.1-50.1
						L370.8,510.3z"/>
				</g>
			</g>
		</g>
		<g>
			<g>
				<g>
					<path class="st1" d="M420.9,543.5l-33.2-33.2l33.2-33.2l33.2,33.2L420.9,543.5z M395.7,510.3l25.1,25.1l25.1-25.1l-25.1-25.1
						L395.7,510.3z"/>
				</g>
			</g>
		</g>
		<g>
			<g>
				<g>
					
						<rect x="415.4" y="505.9" transform="matrix(0.7071 -0.7071 0.7071 0.7071 -237.8806 446.3287)" class="st1" width="8.8" height="8.8"/>
				</g>
			</g>
		</g>
		<g>
			<g>
				<g>
					<path class="st1" d="M301.2,573.1L235,506.9l66.2-66.2l66.2,66.2L301.2,573.1z M251.2,506.9l50.1,50.1l50.1-50.1l-50.1-50.1
						L251.2,506.9z"/>
				</g>
			</g>
		</g>
		<g>
			<g>
				<g>
					<path class="st1" d="M301.2,540.1L268,506.9l33.2-33.2l33.2,33.2L301.2,540.1z M276.1,506.9l25.1,25.1l25.1-25.1l-25.1-25.1
						L276.1,506.9z"/>
				</g>
			</g>
		</g>
		<g>
			<g>
				<g>
					
						<rect x="295.6" y="502.5" transform="matrix(0.7071 -0.7071 0.7071 0.7071 -270.5599 360.6421)" class="st1" width="8.8" height="8.8"/>
				</g>
			</g>
		</g>
		<g>
			<g>
				<g>
					<path class="st1" d="M362.8,634.6l-66.2-66.2l66.2-66.2l66.2,66.2L362.8,634.6z M312.7,568.4l50.1,50.1l50.1-50.1l-50.1-50.1
						L312.7,568.4z"/>
				</g>
			</g>
		</g>
		<g>
			<g>
				<g>
					<path class="st1" d="M362.8,601.6l-33.2-33.2l33.2-33.2l33.2,33.2L362.8,601.6z M337.6,568.4l25.1,25.1l25.1-25.1l-25.1-25.1
						L337.6,568.4z"/>
				</g>
			</g>
		</g>
		<g>
			<g>
				<g>
					
						<rect x="357.1" y="564" transform="matrix(0.7071 -0.7071 0.7071 0.7071 -296.0515 422.1282)" class="st1" width="8.8" height="8.8"/>
				</g>
			</g>
		</g>
		<g>
			<g>
				<g>
					<path class="st1" d="M175.1-21.9l-66.2-66.2l66.2-66.2l66.2,66.2L175.1-21.9z M125.1-88.1L175.3-38l50.1-50.1l-50.1-50.1
						L125.1-88.1z"/>
				</g>
			</g>
		</g>
		<g>
			<g>
				<g>
					<path class="st1" d="M291.5-21.9l-66.2-66.2l66.2-66.2l66.2,66.2L291.5-21.9z M241.3-88.1L291.5-38l50.1-50.1l-50.1-50.1
						L241.3-88.1z"/>
				</g>
			</g>
		</g>
		<g>
			<g>
				<g>
					<path class="st1" d="M291.5-54.9l-33.2-33.2l33.2-33.2l33.2,33.2L291.5-54.9z M266.3-88.1L291.3-63l25.1-25.1l-25.1-25.1
						L266.3-88.1z"/>
				</g>
			</g>
		</g>
		<g>
			<g>
				<g>
					<path class="st1" d="M353,39.7l-66.2-66.2L353-92.8l66.2,66.2L353,39.7z M303-26.6l50.1,50.1l50.1-50.1l-50.3-50L303-26.6z"/>
				</g>
			</g>
		</g>
		<g>
			<g>
				<g>
					<path class="st1" d="M353,6.6l-33.2-33.2L353-59.7l33.2,33.2L353,6.6z M327.9-26.6L353-1.5L378-26.6L353-51.6L327.9-26.6z"/>
				</g>
			</g>
		</g>
		<g>
			<g>
				<g>
					
						<rect x="347.4" y="-31" transform="matrix(0.7071 -0.7071 0.7071 0.7071 121.8281 240.9792)" class="st1" width="8.8" height="8.8"/>
				</g>
			</g>
		</g>
		<g>
			<g>
				<g>
					<path class="st1" d="M233.4,36.2L167.2-30l66.2-66.2L299.6-30L233.4,36.2z M183.2-30l50.1,50.1L283.5-30l-50.1-50L183.2-30z"/>
				</g>
			</g>
		</g>
		<g>
			<g>
				<g>
					<path class="st1" d="M233.4,3.2L200.2-30l33.2-33.2L266.5-30L233.4,3.2z M208.2-30l25.2,25.2l25.1-25.1L233.4-55L208.2-30z"/>
				</g>
			</g>
		</g>
		<g>
			<g>
				<g>
					
						<rect x="227.6" y="-34.4" transform="matrix(0.7071 -0.7071 0.7071 0.7071 89.1489 155.2926)" class="st1" width="8.8" height="8.8"/>
				</g>
			</g>
		</g>
		<g>
			<g>
				<g>
					<path class="st1" d="M294.9,97.9l-66.2-66.2l66.2-66.2l66.2,66.2L294.9,97.9z M244.8,31.7l50.1,50.1L345,31.7l-50.1-50.1
						L244.8,31.7z"/>
				</g>
			</g>
		</g>
		<g>
			<g>
				<g>
					<path class="st1" d="M294.9,64.9l-33.2-33.2l33.2-33.2l33.2,33.2L294.9,64.9z M269.7,31.7l25.2,25.1l25.1-25.1L294.9,6.6
						L269.7,31.7z"/>
				</g>
			</g>
		</g>
		<g>
			<g>
				<g>
					
						<rect x="289.2" y="27.2" transform="matrix(0.7071 -0.7071 0.7071 0.7071 63.6573 216.8622)" class="st1" width="8.8" height="8.8"/>
				</g>
			</g>
		</g>
		<g>
			<g>
				<g>
					<path class="st1" d="M175.1,94.5l-66.2-66.2L175.1-38l66.2,66.2L175.1,94.5z M125.1,28.3l50.1,50.1l50-50.1l-50.1-50.1
						L125.1,28.3z"/>
				</g>
			</g>
		</g>
		<g>
			<g>
				<g>
					<path class="st1" d="M236.8,156l-66.2-66.2l66.2-66.2L303,89.8L236.8,156z M186.7,89.8l50.1,50.1l50.1-50.1l-50.1-50.1
						L186.7,89.8z"/>
				</g>
			</g>
		</g>
		<g>
			<g>
				<g>
					<path class="st1" d="M411.2-18.4L345-84.7l66.2-66.2l66.2,66.2L411.2-18.4z M361.1-84.7l50.1,50.1l50.1-50.1l-50.1-50.1
						L361.1-84.7z"/>
				</g>
			</g>
		</g>
		<g>
			<g>
				<g>
					<path class="st1" d="M411.2-51.5L378-84.7l33.2-33.2l33.2,33.2L411.2-51.5z M386-84.7l25.1,25.1l25.1-25.1l-25.1-25.1L386-84.7
						z"/>
				</g>
			</g>
		</g>
		<g>
			<g>
				<g>
					<path class="st1" d="M651.3-16.8L585.1-83l66.2-66.2L717.5-83L651.3-16.8z M601.3-83l50.1,50.1L701.5-83l-50.3-50L601.3-83z"/>
				</g>
			</g>
		</g>
		<g>
			<g>
				<g>
					<path class="st1" d="M651.3-49.8L618.1-83l33.2-33.2L684.4-83L651.3-49.8z M626.2-83L651.3-58L676.3-83l-25.1-25.1L626.2-83z"
						/>
				</g>
			</g>
		</g>
		<g>
			<g>
				<g>
					<path class="st1" d="M531.7-20.2l-66.2-66.2l66.2-66.2l66.2,66.2L531.7-20.2z M481.5-86.4l50.1,50.1l50.1-50.1l-50.1-50
						L481.5-86.4z"/>
				</g>
			</g>
		</g>
		<g>
			<g>
				<g>
					<path class="st1" d="M531.7-53.3l-33.2-33.2l33.2-33.2l33.2,33.2L531.7-53.3z M506.5-86.4l25.2,25.2l25.1-25.1l-25.1-25.2
						L506.5-86.4z"/>
				</g>
			</g>
		</g>
		<g>
			<g>
				<g>
					<path class="st1" d="M593.2,41.4L527-24.8L593.2-91l66.2,66.2L593.2,41.4z M543-24.8l50.1,50.1l50.1-50.1l-50.1-50.1L543-24.8z
						"/>
				</g>
			</g>
		</g>
		<g>
			<g>
				<g>
					<path class="st1" d="M593.2,8.4L560-24.8L593.2-58l33.2,33.2L593.2,8.4z M568-24.8l25.2,25.1l25.1-25.1l-25.1-25.1L568-24.8z"
						/>
				</g>
			</g>
		</g>
		<g>
			<g>
				<g>
					
						<rect x="587.5" y="-29.3" transform="matrix(0.7071 -0.7071 0.7071 0.7071 190.9477 411.249)" class="st1" width="8.8" height="8.8"/>
				</g>
			</g>
		</g>
		<g>
			<g>
				<g>
					<path class="st1" d="M473.4,38l-66.2-66.2l66.2-66.2l66.2,66.2L473.4,38z M423.4-28.2l50.1,50.1l50-50.1l-50.1-50.1L423.4-28.2
						z"/>
				</g>
			</g>
		</g>
		<g>
			<g>
				<g>
					<path class="st1" d="M535.1,99.5l-66.2-66.2l66.2-66.2l66.2,66.2L535.1,99.5z M485,33.3l50.1,50.1l50.1-50.1l-50.1-50.1
						L485,33.3z"/>
				</g>
			</g>
		</g>
		<g>
			<g>
				<g>
					<path class="st1" d="M770.3-16.6l-66.2-66.2l66.2-66.2l66.2,66.2L770.3-16.6z M720.2-82.8l50.1,50.1l50.1-50.1l-50.1-50.1
						L720.2-82.8z"/>
				</g>
			</g>
		</g>
		<g>
			<g>
				<g>
					<path class="st1" d="M770.3-49.6l-33.2-33.2l33.2-33.2l33.2,33.2L770.3-49.6z M745.1-82.8l25.1,25.1l25.1-25.1l-25.1-25.1
						L745.1-82.8z"/>
				</g>
			</g>
		</g>
		<g>
			<g>
				<g>
					<path class="st1" d="M834,46.2L767.8-20L834-86.3L900.3-20L834,46.2z M783.9-20L834,30.1L884.2-20L834-70.2L783.9-20z"/>
				</g>
			</g>
		</g>
		<g>
			<g>
				<g>
					<path class="st1" d="M834.5,13.1l-33.6-32.7l32.7-33.6l33.6,32.7L834.5,13.1z M808.8-19.7L834.2,5L859-20.4l-25.4-24.7
						L808.8-19.7z"/>
				</g>
			</g>
		</g>
		<g>
			<g>
				<g>
					
						<rect x="828.3" y="-24.4" transform="matrix(0.7071 -0.7071 0.7071 0.7071 258.0504 582.9604)" class="st1" width="8.8" height="8.8"/>
				</g>
			</g>
		</g>
		<g>
			<g>
				<g>
					<path class="st1" d="M893.1,106.3l-66.2-66.2l66.2-66.2l66.2,66.2L893.1,106.3z M843,40.1l50.1,50.1l50.1-50.1L893.1-10
						L843,40.1z"/>
				</g>
			</g>
		</g>
		<g>
			<g>
				<g>
					<path class="st1" d="M887.1,71.4l-33.2-33.2l33.2-33.2l33.2,33.2L887.1,71.4z M861.9,38.3L887,63.3L912,38.3L887,13.2
						L861.9,38.3z"/>
				</g>
			</g>
		</g>
		<g>
			<g>
				<g>
					
						<rect x="881.4" y="33.9" transform="matrix(0.7071 -0.7071 0.7071 0.7071 232.3643 637.5625)" class="st1" width="8.8" height="8.8"/>
				</g>
			</g>
		</g>
		<g>
			<g>
				<g>
					<path class="st1" d="M473.5,6.6l-33.2-33.2l33.2-33.2l33.2,33.2L473.5,6.6z M448.3-26.6l25.1,25.1l25.1-25.1l-25.1-25.1
						L448.3-26.6z"/>
				</g>
			</g>
		</g>
		<g>
			<g>
				<g>
					
						<rect x="467.8" y="-31" transform="matrix(0.7071 -0.7071 0.7071 0.7071 157.0638 326.0991)" class="st1" width="8.8" height="8.8"/>
				</g>
			</g>
		</g>
		<g>
			<g>
				<g>
					<path class="st1" d="M532.7,67.4l-33.2-33.2L532.7,1l33.2,33.2L532.7,67.4z M507.5,34.2l25.1,25.1l25.1-25.1L532.6,9.1
						L507.5,34.2z"/>
				</g>
			</g>
		</g>
		<g>
			<g>
				<g>
					
						<rect x="527" y="29.8" transform="matrix(0.7071 -0.7071 0.7071 0.7071 131.4467 385.7838)" class="st1" width="8.8" height="8.8"/>
				</g>
			</g>
		</g>
		<g>
			<g>
				<g>
					<path class="st1" d="M888.4,193.3l-33.2-33.2l33.2-33.2l33.2,33.2L888.4,193.3z M863.2,160.2l25.1,25.1l25.1-25.1l-25.1-25.1
						L863.2,160.2z"/>
				</g>
			</g>
		</g>
		<g>
			<g>
				<g>
					
						<rect x="882.7" y="155.8" transform="matrix(0.7071 -0.7071 0.7071 0.7071 146.5617 674.197)" class="st1" width="8.8" height="8.8"/>
				</g>
			</g>
		</g>
		<g>
			<g>
				<g>
					<path class="st1" d="M945.9,252.7l-33.2-33.2l33.2-33.2l33.2,33.2L945.9,252.7z M920.7,219.5l25.1,25.1l25.1-25.1l-25.1-25.1
						L920.7,219.5z"/>
				</g>
			</g>
		</g>
		<g>
			<g>
				<g>
					
						<rect x="940.2" y="215.1" transform="matrix(0.7071 -0.7071 0.7071 0.7071 121.4136 732.2417)" class="st1" width="8.8" height="8.8"/>
				</g>
			</g>
		</g>
		<g>
			<g>
				<g>
					<path class="st1" d="M829.6,517.7l-66.2-66.2l66.2-66.2l66.2,66.2L829.6,517.7z M779.5,451.5l50.1,50.1l50.1-50.1l-50.1-50.1
						L779.5,451.5z"/>
				</g>
			</g>
		</g>
		<g>
			<g>
				<g>
					<path class="st1" d="M714,520.6l-66.2-66.2l66.2-66.2l66.2,66.2L714,520.6z M663.9,454.3l50.1,50.1l50.1-50.1L714,404.2
						L663.9,454.3z"/>
				</g>
			</g>
		</g>
		<g>
			<g>
				<g>
					<path class="st1" d="M891.1,579.3l-66.2-66.2l66.2-66.2l66.2,66.2L891.1,579.3z M841.1,513.1l50.1,50.1l50.1-50.1L891.2,463
						L841.1,513.1z"/>
				</g>
			</g>
		</g>
		<g>
			<g>
				<g>
					<path class="st1" d="M891.1,546.3l-33.2-33.2l33.2-33.2l33.2,33.2L891.1,546.3z M866,513.1l25.1,25.1l25.1-25.1l-25.1-25.1
						L866,513.1z"/>
				</g>
			</g>
		</g>
		<g>
			<g>
				<g>
					
						<rect x="885.5" y="508.5" transform="matrix(0.7071 -0.7071 0.7071 0.7071 -102.069 779.4948)" class="st1" width="8.8" height="8.8"/>
				</g>
			</g>
		</g>
		<g>
			<g>
				<g>
					<path class="st1" d="M833,637.4l-66.2-66.2L833,505l66.2,66.2L833,637.4z M782.9,571.2l50.1,50.1l50.1-50.1L833,521.1
						L782.9,571.2z"/>
				</g>
			</g>
		</g>
		<g>
			<g>
				<g>
					<path class="st1" d="M829.6,401.5l-66.2-66.2l66.2-66.2l66.2,66.2L829.6,401.5z M779.5,335.3l50.1,50.1l50.1-50.1l-50.1-50.1
						L779.5,335.3z"/>
				</g>
			</g>
		</g>
		<g>
			<g>
				<g>
					<path class="st1" d="M887.7,343.2L821.5,277l66.2-66.2l66.2,66.2L887.7,343.2z M837.7,277l50.1,50.1l50.1-50.1l-50.3-50
						L837.7,277z"/>
				</g>
			</g>
		</g>
		<g>
			<g>
				<g>
					<path class="st1" d="M887.7,310.2L854.5,277l33.2-33.2l33.2,33.2L887.7,310.2z M862.6,277l25.1,25.1l25.1-25.1L887.7,252
						L862.6,277z"/>
				</g>
			</g>
		</g>
		<g>
			<g>
				<g>
					
						<rect x="882.1" y="272.6" transform="matrix(0.7071 -0.7071 0.7071 0.7071 63.7635 707.9886)" class="st1" width="8.8" height="8.8"/>
				</g>
			</g>
		</g>
		<g>
			<g>
				<g>
					<path class="st1" d="M829.2,368.4L796,335.3l33.2-33.2l33.2,33.2L829.2,368.4z M804.1,335.3l25.1,25.1l25.1-25.1l-25.1-25.1
						L804.1,335.3z"/>
				</g>
			</g>
		</g>
		<g>
			<g>
				<g>
					
						<rect x="823.6" y="330.9" transform="matrix(0.7071 -0.7071 0.7071 0.7071 5.4499 683.6866)" class="st1" width="8.8" height="8.8"/>
				</g>
			</g>
		</g>
		<g>
			<g>
				<g>
					<path class="st1" d="M768.8,428.7l-33.2-33.2l33.2-33.2l33.2,33.2L768.8,428.7z M743.8,395.5l25.1,25.1l25.1-25.1l-25.1-25.1
						L743.8,395.5z"/>
				</g>
			</g>
		</g>
		<g>
			<g>
				<g>
					
						<rect x="763.2" y="391.1" transform="matrix(0.7071 -0.7071 0.7071 0.7071 -54.8483 658.6488)" class="st1" width="8.8" height="8.8"/>
				</g>
			</g>
		</g>
		<g>
			<g>
				<g>
					<path class="st1" d="M714,486.5l-33.2-33.2l33.2-33.2l33.2,33.2L714,486.5z M688.9,453.3l25.1,25.1l25.1-25.1L714,428.3
						L688.9,453.3z"/>
				</g>
			</g>
		</g>
		<g>
			<g>
				<g>
					
						<rect x="708.4" y="448.9" transform="matrix(0.7071 -0.7071 0.7071 0.7071 -111.7838 636.8162)" class="st1" width="8.8" height="8.8"/>
				</g>
			</g>
		</g>
		<g>
			<g>
				<g>
					<path class="st1" d="M832,486.5l-33.2-33.2l33.2-33.2l33.2,33.2L832,486.5z M806.9,453.3l25.1,25.1l25.1-25.1L832,428.3
						L806.9,453.3z"/>
				</g>
			</g>
		</g>
		<g>
			<g>
				<g>
					
						<rect x="826.4" y="448.9" transform="matrix(0.7071 -0.7071 0.7071 0.7071 -77.224 720.2557)" class="st1" width="8.8" height="8.8"/>
				</g>
			</g>
		</g>
		<g>
			<g>
				<g>
					<path class="st1" d="M945.9,285.1l-66.2-66.2l66.2-66.2l66.2,66.2L945.9,285.1z M895.8,218.9l50.1,50.1l50.1-50.1l-50.1-50.1
						L895.8,218.9z"/>
				</g>
			</g>
		</g>
		<g>
			<g>
				<g>
					<path class="st1" d="M1004,343.2L937.8,277l66.2-66.2l66.2,66.2L1004,343.2z M953.9,277l50.1,50.1l50.1-50.1l-50.1-50
						L953.9,277z"/>
				</g>
			</g>
		</g>
		<g>
			<g>
				<g>
					<path class="st1" d="M1004,310.2L970.8,277l33.2-33.2l33.2,33.2L1004,310.2z M978.8,277l25.1,25.1l25.1-25.1l-25.1-25.1
						L978.8,277z"/>
				</g>
			</g>
		</g>
		<g>
			<g>
				<g>
					
						<rect x="998.4" y="272.6" transform="matrix(0.7071 -0.7071 0.7071 0.7071 97.8588 790.2593)" class="st1" width="8.8" height="8.8"/>
				</g>
			</g>
		</g>
		<g>
			<g>
				<g>
					<path class="st1" d="M1065.5,404.9l-66.2-66.2l66.2-66.2l66.2,66.2L1065.5,404.9z M1015.6,338.7l50.1,50.1l50-50.1l-50.1-50.1
						L1015.6,338.7z"/>
				</g>
			</g>
		</g>
		<g>
			<g>
				<g>
					<path class="st1" d="M945.9,401.5l-66.2-66.2l66.2-66.2l66.2,66.2L945.9,401.5z M895.8,335.3l50.1,50.1l50.1-50.1l-50.1-50.1
						L895.8,335.3z"/>
				</g>
			</g>
		</g>
		<g>
			<g>
				<g>
					<path class="st1" d="M945.9,368.4l-33.2-33.2l33.2-33.2l33.2,33.2L945.9,368.4z M920.7,335.3l25.1,25.1l25.1-25.1l-24.9-25.2
						L920.7,335.3z"/>
				</g>
			</g>
		</g>
		<g>
			<g>
				<g>
					
						<rect x="940.2" y="330.9" transform="matrix(0.7071 -0.7071 0.7071 0.7071 39.5629 766.1595)" class="st1" width="8.8" height="8.8"/>
				</g>
			</g>
		</g>
		<g>
			<g>
				<g>
					<path class="st1" d="M1007.4,463l-66.2-66.2l66.2-66.2l66.2,66.2L1007.4,463z M957.3,396.8l50.1,50.1l50.1-50.1l-50.1-50.1
						L957.3,396.8z"/>
				</g>
			</g>
		</g>
		<g>
			<g>
				<g>
					<path class="st1" d="M1007.4,430l-33.2-33.2l33.2-33.2l33.2,33.2L1007.4,430z M982.2,396.8l25.1,25.1l25.1-25.1l-25.1-25.1
						L982.2,396.8z"/>
				</g>
			</g>
		</g>
		<g>
			<g>
				<g>
					
						<rect x="1001.9" y="392.4" transform="matrix(0.7071 -0.7071 0.7071 0.7071 14.172 827.7707)" class="st1" width="8.8" height="8.8"/>
				</g>
			</g>
		</g>
		<g>
			<g>
				<g>
					<path class="st1" d="M887.7,459.6l-66.2-66.2l66.2-66.2l66.2,66.2L887.7,459.6z M837.7,393.4l50.1,50.1l50.1-50.1l-50.1-50.1
						L837.7,393.4z"/>
				</g>
			</g>
		</g>
		<g>
			<g>
				<g>
					<path class="st1" d="M887.7,426.5l-33.2-33.2l33.2-33.2l33.2,33.2L887.7,426.5z M862.6,393.4l25.1,25.1l25.1-25.1l-25.1-25.1
						L862.6,393.4z"/>
				</g>
			</g>
		</g>
		<g>
			<g>
				<g>
					
						<rect x="882.1" y="389" transform="matrix(0.7071 -0.7071 0.7071 0.7071 -18.5073 742.0841)" class="st1" width="8.8" height="8.8"/>
				</g>
			</g>
		</g>
		<g>
			<g>
				<g>
					<path class="st1" d="M949.3,521.1l-66.2-66.2l66.2-66.2l66.2,66.2L949.3,521.1z M899.2,454.9l50.1,50.1l50.1-50.1l-50.1-50.1
						L899.2,454.9z"/>
				</g>
			</g>
		</g>
		<g>
			<g>
				<g>
					<path class="st1" d="M949.3,488.1l-33.2-33.2l33.2-33.2l33.2,33.2L949.3,488.1z M924.1,454.9l25.1,25.1l25.1-25.1l-24.9-25.1
						L924.1,454.9z"/>
				</g>
			</g>
		</g>
		<g>
			<g>
				<g>
					
						<rect x="943.7" y="450.6" transform="matrix(0.7071 -0.7071 0.7071 0.7071 -44.0406 803.6709)" class="st1" width="8.8" height="8.8"/>
				</g>
			</g>
		</g>
		<g>
			<g>
				<g>
					<path class="st1" d="M1065.5,371.9l-33.2-33.2l33.2-33.2l33.2,33.2L1065.5,371.9z M1040.3,338.7l25.1,25.1l25.1-25.1
						l-25.1-25.1L1040.3,338.7z"/>
				</g>
			</g>
		</g>
		<g>
			<g>
				<g>
					
						<rect x="1059.8" y="334.3" transform="matrix(0.7071 -0.7071 0.7071 0.7071 72.1956 851.7182)" class="st1" width="8.8" height="8.8"/>
				</g>
			</g>
		</g>
		<g>
			<g>
				<g>
					<path class="st1" d="M-179,327.2l-66.2-66.2l66.2-66.2l66.2,66.2L-179,327.2z M-229.1,261l50.1,50.1l50.1-50.1l-50.1-50.1
						L-229.1,261z"/>
				</g>
			</g>
		</g>
		<g>
			<g>
				<g>
					<path class="st1" d="M-179,294.2l-33.2-33.2l33.2-33.2l33.2,33.2L-179,294.2z M-204.2,261l25.1,25.1L-154,261l-25.1-25.1
						L-204.2,261z"/>
				</g>
			</g>
		</g>
		<g>
			<g>
				<g>
					<path class="st1" d="M-117.5,388.7l-66.2-66.2l66.2-66.2l66.2,66.2L-117.5,388.7z M-167.6,322.5l50.1,50.1l50.1-50.1
						l-50.1-50.1L-167.6,322.5z"/>
				</g>
			</g>
		</g>
		<g>
			<g>
				<g>
					<path class="st1" d="M-117.5,355.7l-33.2-33.2l33.2-33.2l33.2,33.2L-117.5,355.7z M-142.5,322.5l25.1,25.1l25.1-25.1
						l-25.1-25.1L-142.5,322.5z"/>
				</g>
			</g>
		</g>
		<g>
			<g>
				<g>
					
						<rect x="-123" y="318.1" transform="matrix(0.7071 -0.7071 0.7071 0.7071 -262.7646 10.5796)" class="st1" width="8.8" height="8.8"/>
				</g>
			</g>
		</g>
		<g>
			<g>
				<g>
					<path class="st1" d="M-120.9,269.1l-66.2-66.2l66.2-66.2l66.2,66.2L-120.9,269.1z M-171,202.9l50.1,50.1l50.1-50.1l-50.1-50.1
						L-171,202.9z"/>
				</g>
			</g>
		</g>
		<g>
			<g>
				<g>
					<path class="st1" d="M-120.9,236.1l-33.2-33.2l33.2-33.2l33.2,33.2L-120.9,236.1z M-145.9,202.9l25.1,25.1l25.1-25.1
						l-25.1-25.1L-145.9,202.9z"/>
				</g>
			</g>
		</g>
		<g>
			<g>
				<g>
					
						<rect x="-126.5" y="198.3" transform="matrix(0.7071 -0.7071 0.7071 0.7071 -179.0777 -26.9316)" class="st1" width="8.8" height="8.8"/>
				</g>
			</g>
		</g>
		<g>
			<g>
				<g>
					<path class="st1" d="M-59.4,330.6l-66.2-66.2l66.2-66.2l66.2,66.2L-59.4,330.6z M-109.3,264.4l50.1,50.1l50.1-50.1l-50.1-50.1
						L-109.3,264.4z"/>
				</g>
			</g>
		</g>
		<g>
			<g>
				<g>
					<path class="st1" d="M-59.4,297.6l-33.2-33.2l33.2-33.2l33.2,33.2L-59.4,297.6z M-84.4,264.4l25.1,25.1l25.1-25.1l-25.1-25.1
						L-84.4,264.4z"/>
				</g>
			</g>
		</g>
		<g>
			<g>
				<g>
					
						<rect x="-64.9" y="260" transform="matrix(0.7071 -0.7071 0.7071 0.7071 -204.6945 34.655)" class="st1" width="8.8" height="8.8"/>
				</g>
			</g>
		</g>
		<g>
			<g>
				<g>
					<path class="st1" d="M-62.8,210.8l-66.2-66.2l66.2-66.2l66.2,66.2L-62.8,210.8z M-112.8,144.6l50.1,50.1l50.1-50.1l-50.3-50
						L-112.8,144.6z"/>
				</g>
			</g>
		</g>
		<g>
			<g>
				<g>
					<path class="st1" d="M-62.8,177.8l-33.2-33.2l33.2-33.2l33.2,33.2L-62.8,177.8z M-87.8,144.6l25.1,25.1l25.1-25.1l-25.1-25.1
						L-87.8,144.6z"/>
				</g>
			</g>
		</g>
		<g>
			<g>
				<g>
					
						<rect x="-68.4" y="140.2" transform="matrix(0.7071 -0.7071 0.7071 0.7071 -121.0076 -2.8563)" class="st1" width="8.8" height="8.8"/>
				</g>
			</g>
		</g>
		<g>
			<g>
				<g>
					<path class="st1" d="M-1.1,272.5l-66.2-66.2l66.2-66.2l66.2,66.2L-1.1,272.5z M-51.2,206.3l50.1,50.1L49,206.3l-50.1-50.1
						L-51.2,206.3z"/>
				</g>
			</g>
		</g>
		<g>
			<g>
				<g>
					<path class="st1" d="M-1.1,239.5l-33.2-33.2l33.2-33.2l33.2,33.2L-1.1,239.5z M-26.3,206.3l25.1,25.1l25.1-25.1l-25.1-25.1
						L-26.3,206.3z"/>
				</g>
			</g>
		</g>
		<g>
			<g>
				<g>
					
						<rect x="-6.6" y="201.9" transform="matrix(0.7071 -0.7071 0.7071 0.7071 -146.5237 58.8556)" class="st1" width="8.8" height="8.8"/>
				</g>
			</g>
		</g>
		<g>
			<g>
				<g>
					<path class="st1" d="M57,330.6l-66.2-66.2L57,198.2l66.2,66.2L57,330.6z M6.9,264.4L57,314.5l50.1-50.1L57,214.3L6.9,264.4z"/>
				</g>
			</g>
		</g>
		<g>
			<g>
				<g>
					<path class="st1" d="M57,297.6l-33.2-33.2L57,231.2l33.2,33.2L57,297.6z M31.9,264.4L57,289.5L82,264.4L57,239.3L31.9,264.4z"
						/>
				</g>
			</g>
		</g>
		<g>
			<g>
				<g>
					
						<rect x="51.4" y="260" transform="matrix(0.7071 -0.7071 0.7071 0.7071 -170.599 116.9258)" class="st1" width="8.8" height="8.8"/>
				</g>
			</g>
		</g>
		<g>
			<g>
				<g>
					<path class="st1" d="M118.5,392.1l-66.2-66.2l66.2-66.2l66.2,66.2L118.5,392.1z M68.5,325.9l50.1,50.1l50.1-50.1l-50.1-50.1
						L68.5,325.9z"/>
				</g>
			</g>
		</g>
		<g>
			<g>
				<g>
					<path class="st1" d="M118.5,359.1l-33.2-33.2l33.2-33.2l33.2,33.2L118.5,359.1z M93.4,325.9l25.1,25.1l25.2-25.1l-25.1-25.1
						L93.4,325.9z"/>
				</g>
			</g>
		</g>
		<g>
			<g>
				<g>
					
						<rect x="112.9" y="321.5" transform="matrix(0.7071 -0.7071 0.7071 0.7071 -196.0906 178.4119)" class="st1" width="8.8" height="8.8"/>
				</g>
			</g>
		</g>
		<g>
			<g>
				<g>
					<path class="st1" d="M-1.1,388.7l-66.2-66.2l66.2-66.2l66.2,66.2L-1.1,388.7z M-51.2,322.5l50.1,50.1L49,322.5l-50.1-50.1
						L-51.2,322.5z"/>
				</g>
			</g>
		</g>
		<g>
			<g>
				<g>
					<path class="st1" d="M-1.1,355.7l-33.2-33.2l33.2-33.2l33.2,33.2L-1.1,355.7z M-26.3,322.5l25.1,25.1l25.1-25.1l-25.1-25.1
						L-26.3,322.5z"/>
				</g>
			</g>
		</g>
		<g>
			<g>
				<g>
					
						<rect x="-6.7" y="318" transform="matrix(0.7071 -0.7071 0.7071 0.7071 -228.6692 92.8504)" class="st1" width="8.8" height="8.8"/>
				</g>
			</g>
		</g>
		<g>
			<g>
				<g>
					<path class="st1" d="M60.4,450.4l-66.2-66.2l66.2-66.2l66.2,66.2L60.4,450.4z M10.3,384.1l50.1,50.1l50.1-50.1L60.4,334
						L10.3,384.1z"/>
				</g>
			</g>
		</g>
		<g>
			<g>
				<g>
					<path class="st1" d="M60.4,417.3l-33.2-33.2L60.4,351l33.2,33.2L60.4,417.3z M35.3,384.1l25.1,25.1l25.1-25.1l-25.1-25.1
						L35.3,384.1z"/>
				</g>
			</g>
		</g>
		<g>
			<g>
				<g>
					
						<rect x="54.8" y="379.6" transform="matrix(0.7071 -0.7071 0.7071 0.7071 -254.1608 154.3365)" class="st1" width="8.8" height="8.8"/>
				</g>
			</g>
		</g>
		<g>
			<g>
				<g>
					<path class="st1" d="M-59.4,446.9l-66.2-66.2l66.2-66.2l66.2,66.2L-59.4,446.9z M-109.3,380.7l50.1,50.1l50.1-50.1l-50.1-50.1
						L-109.3,380.7z"/>
				</g>
			</g>
		</g>
		<g>
			<g>
				<g>
					<path class="st1" d="M-59.4,413.9l-33.2-33.2l33.2-33.2l33.2,33.2L-59.4,413.9z M-84.4,380.7l25.1,25.1l25.1-25.1l-25.1-25.1
						L-84.4,380.7z"/>
				</g>
			</g>
		</g>
		<g>
			<g>
				<g>
					
						<rect x="-65" y="376.2" transform="matrix(0.7071 -0.7071 0.7071 0.7071 -286.84 68.6499)" class="st1" width="8.8" height="8.8"/>
				</g>
			</g>
		</g>
		<g>
			<g>
				<g>
					<path class="st1" d="M2.3,508.5l-66.2-66.2L2.3,376l66.2,66.2L2.3,508.5z M-47.8,442.2l50.1,50.1l50.1-50.1L2.3,392.1
						L-47.8,442.2z"/>
				</g>
			</g>
		</g>
		<g>
			<g>
				<g>
					<path class="st1" d="M2.3,475.4l-33.2-33.2l33.2-33.2l33.2,33.2L2.3,475.4z M-22.9,442.2l25.1,25.1l25.1-25.1L2.2,417.2
						L-22.9,442.2z"/>
				</g>
			</g>
		</g>
		<g>
			<g>
				<g>
					
						<rect x="-3.2" y="437.8" transform="matrix(0.7071 -0.7071 0.7071 0.7071 -312.356 130.3618)" class="st1" width="8.8" height="8.8"/>
				</g>
			</g>
		</g>
		<g>
			<g>
				<g>
					<path class="st1" d="M-4.5,152.8l-66.2-66.2l66.2-66.2l66.2,66.2L-4.5,152.8z M-54.7,86.5l50.1,50.1l50-50.1L-4.7,36.4
						L-54.7,86.5z"/>
				</g>
			</g>
		</g>
		<g>
			<g>
				<g>
					<path class="st1" d="M-4.5,119.7l-33.2-33.2l33.2-33.2l33.2,33.2L-4.5,119.7z M-29.7,86.5l25.1,25.1l25.1-25.1L-4.7,61.5
						L-29.7,86.5z"/>
				</g>
			</g>
		</g>
		<g>
			<g>
				<g>
					
						<rect x="-10.1" y="82.1" transform="matrix(0.7071 -0.7071 0.7071 0.7071 -62.8367 21.3442)" class="st1" width="8.8" height="8.8"/>
				</g>
			</g>
		</g>
		<g>
			<g>
				<g>
					<path class="st1" d="M57,214.3l-66.2-66.2L57,81.8l66.2,66.2L57,214.3z M6.9,148.1L57,198.2l50.1-50.1L57,97.9L6.9,148.1z"/>
				</g>
			</g>
		</g>
		<g>
			<g>
				<g>
					<path class="st1" d="M57,181.2l-33.2-33.2L57,114.9l33.2,33.2L57,181.2z M31.9,148.1L57,173.1L82,148.1L57,123L31.9,148.1z"/>
				</g>
			</g>
		</g>
		<g>
			<g>
				<g>
					
						<rect x="51.4" y="143.6" transform="matrix(0.7071 -0.7071 0.7071 0.7071 -88.3283 82.8303)" class="st1" width="8.8" height="8.8"/>
				</g>
			</g>
		</g>
		<g>
			<g>
				<g>
					<path class="st1" d="M53.6,94.7l-66.2-66.2l66.2-66.2l66.2,66.2L53.6,94.7z M3.4,28.4l50.1,50.1l50.1-50.1L53.6-21.7L3.4,28.4z
						"/>
				</g>
			</g>
		</g>
		<g>
			<g>
				<g>
					<path class="st1" d="M53.6,61.6L20.4,28.4L53.6-4.7l33.2,33.2L53.6,61.6z M28.5,28.4l25.1,25.1l25.1-25.1L53.6,3.4L28.5,28.4z"
						/>
				</g>
			</g>
		</g>
		<g>
			<g>
				<g>
					<rect x="48" y="24" transform="matrix(0.7071 -0.7071 0.7071 0.7071 -4.7666 45.4196)" class="st1" width="8.8" height="8.8"/>
				</g>
			</g>
		</g>
		<g>
			<g>
				<g>
					<path class="st1" d="M115.1,156.2L48.9,90l66.2-66.2L181.3,90L115.1,156.2z M65.1,90l50.1,50.1L165.3,90l-50.3-50.1L65.1,90z"
						/>
				</g>
			</g>
		</g>
		<g>
			<g>
				<g>
					<path class="st1" d="M115.1,123.1L81.9,90l33.2-33.2L148.3,90L115.1,123.1z M90,90l25.1,25.1L140.1,90l-25.1-25.1L90,90z"/>
				</g>
			</g>
		</g>
		<g>
			<g>
				<g>
					
						<rect x="109.5" y="85.6" transform="matrix(0.7071 -0.7071 0.7071 0.7071 -30.2582 106.9057)" class="st1" width="8.8" height="8.8"/>
				</g>
			</g>
		</g>
		<g>
			<g>
				<g>
					<path class="st1" d="M111.7,36.4L45.4-29.8L111.7-96l66.2,66.2L111.7,36.4z M61.7-29.8l50.1,50.1l50-50.1l-50.1-50.1L61.7-29.8
						z"/>
				</g>
			</g>
		</g>
		<g>
			<g>
				<g>
					<path class="st1" d="M111.7,3.4L78.5-29.8L111.7-63l33.2,33.2L111.7,3.4z M86.6-29.8l25.1,25.1l25.1-25.1l-25.1-25.1L86.6-29.8
						z"/>
				</g>
			</g>
		</g>
		<g>
			<g>
				<g>
					
						<rect x="106.1" y="-34.2" transform="matrix(0.7071 -0.7071 0.7071 0.7071 53.4287 69.3944)" class="st1" width="8.8" height="8.8"/>
				</g>
			</g>
		</g>
		<g>
			<g>
				<g>
					<path class="st1" d="M173.3,98.1l-66.2-66.2l66.2-66.2l66.2,66.2L173.3,98.1z M123.2,31.9l50.1,50l50-50l-50-50.1L123.2,31.9z"
						/>
				</g>
			</g>
		</g>
		<g>
			<g>
				<g>
					<path class="st1" d="M173.3,65l-33.2-33.2l33.2-33.2l33.2,33.2L173.3,65z M148.1,31.9l25.1,25.1l25.2-25.1L173.3,6.7
						L148.1,31.9z"/>
				</g>
			</g>
		</g>
		<g>
			<g>
				<g>
					
						<rect x="167.8" y="27.4" transform="matrix(0.7071 -0.7071 0.7071 0.7071 27.9127 131.1063)" class="st1" width="8.8" height="8.8"/>
				</g>
			</g>
		</g>
		<g>
			<g>
				<g>
					<path class="st1" d="M231.4,156.2L165.2,90l66.2-66.2L297.6,90L231.4,156.2z M181.3,90l50.1,50.1L281.5,90l-50.1-50.1L181.3,90
						z"/>
				</g>
			</g>
		</g>
		<g>
			<g>
				<g>
					<path class="st1" d="M231.4,123.1L198.2,90l33.2-33.2L264.6,90L231.4,123.1z M206.4,90l25.1,25.1L256.5,90l-25.1-25.1L206.4,90
						z"/>
				</g>
			</g>
		</g>
		<g>
			<g>
				<g>
					
						<rect x="225.9" y="85.5" transform="matrix(0.7071 -0.7071 0.7071 0.7071 3.8372 189.1764)" class="st1" width="8.8" height="8.8"/>
				</g>
			</g>
		</g>
		<g>
			<g>
				<g>
					<path class="st1" d="M292.9,217.7l-66.2-66.2l66.2-66.2l66.2,66.2L292.9,217.7z M243,151.5l50.1,50.1l50-50.1l-50.1-50.1
						L243,151.5z"/>
				</g>
			</g>
		</g>
		<g>
			<g>
				<g>
					<path class="st1" d="M292.9,184.6l-33.2-33.2l33.2-33.2l33.2,33.2L292.9,184.6z M267.9,151.5l25.1,25.1l25.1-25.1l-25.1-25.1
						L267.9,151.5z"/>
				</g>
			</g>
		</g>
		<g>
			<g>
				<g>
					
						<rect x="287.3" y="147.1" transform="matrix(0.7071 -0.7071 0.7071 0.7071 -21.6543 250.6625)" class="st1" width="8.8" height="8.8"/>
				</g>
			</g>
		</g>
		<g>
			<g>
				<g>
					<path class="st1" d="M173.3,214.3l-66.2-66.2l66.2-66.2l66.2,66.2L173.3,214.3z M123.2,148.1l50.1,50.1l50.1-50.1l-50.1-50
						L123.2,148.1z"/>
				</g>
			</g>
		</g>
		<g>
			<g>
				<g>
					<path class="st1" d="M173.3,181.2l-33.2-33.2l33.2-33.2l33.2,33.2L173.3,181.2z M148.1,148.1l25.1,25.1l25.1-25.1L173.3,123
						L148.1,148.1z"/>
				</g>
			</g>
		</g>
		<g>
			<g>
				<g>
					
						<rect x="167.8" y="143.6" transform="matrix(0.7071 -0.7071 0.7071 0.7071 -54.2329 165.101)" class="st1" width="8.8" height="8.8"/>
				</g>
			</g>
		</g>
		<g>
			<g>
				<g>
					<path class="st1" d="M234.8,275.9l-66.2-66.2l66.2-66.2l66.2,66.2L234.8,275.9z M184.7,209.7l50.1,50l50.1-50.1l-50.1-50
						L184.7,209.7z"/>
				</g>
			</g>
		</g>
		<g>
			<g>
				<g>
					<path class="st1" d="M234.8,242.9l-33.2-33.2l33.2-33.2l33.2,33.2L234.8,242.9z M209.8,209.7l25.1,25.1l25.1-25.1l-25.1-25.2
						L209.8,209.7z"/>
				</g>
			</g>
		</g>
		<g>
			<g>
				<g>
					
						<rect x="229.3" y="205.3" transform="matrix(0.7071 -0.7071 0.7071 0.7071 -79.8496 226.6878)" class="st1" width="8.8" height="8.8"/>
				</g>
			</g>
		</g>
		<g>
			<g>
				<g>
					<path class="st1" d="M115.1,272.5l-66.2-66.2l66.2-66.2l66.2,66.2L115.1,272.5z M65.1,206.3l50.1,50.1l50.1-50.1l-50.1-50.1
						L65.1,206.3z"/>
				</g>
			</g>
		</g>
		<g>
			<g>
				<g>
					<path class="st1" d="M115.1,239.5l-33.2-33.2l33.2-33.2l33.2,33.2L115.1,239.5z M90,206.3l25.1,25.1l25.1-25.1l-25.1-25.1
						L90,206.3z"/>
				</g>
			</g>
		</g>
		<g>
			<g>
				<g>
					
						<rect x="109.5" y="201.9" transform="matrix(0.7071 -0.7071 0.7071 0.7071 -112.5288 141.0012)" class="st1" width="8.8" height="8.8"/>
				</g>
			</g>
		</g>
		<g>
			<g>
				<g>
					<path class="st1" d="M176.7,334l-66.2-66.2l66.2-66.2l66.2,66.2L176.7,334z M126.6,267.8l50.1,50.1l50.1-50.1l-50.1-50.1
						L126.6,267.8z"/>
				</g>
			</g>
		</g>
		<g>
			<g>
				<g>
					<path class="st1" d="M176.7,301l-33.2-33.2l33.2-33.2l33.2,33.2L176.7,301z M151.5,267.8l25.1,25.1l25.1-25.1l-24.9-25.1
						L151.5,267.8z"/>
				</g>
			</g>
		</g>
		<g>
			<g>
				<g>
					<path class="st1" d="M-181.2,87.8l-66.2-66.2l66.2-66.2l66.2,66.2L-181.2,87.8z M-231.4,21.6l50.1,50.1l50.1-50.1l-50.1-50.1
						L-231.4,21.6z"/>
				</g>
			</g>
		</g>
		<g>
			<g>
				<g>
					<path class="st1" d="M-181.2,54.8l-33.2-33.2l33.2-33.2l33.2,33.2L-181.2,54.8z M-206.4,21.6l25.1,25.1l25.1-25.1l-24.9-25.2
						L-206.4,21.6z"/>
				</g>
			</g>
		</g>
		<g>
			<g>
				<g>
					<path class="st1" d="M-119.7,149.3l-66.2-66.2l66.2-66.2l66.2,66.2L-119.7,149.3z M-169.9,83.1l50.1,50.1l50.1-50.1L-119.7,33
						L-169.9,83.1z"/>
				</g>
			</g>
		</g>
		<g>
			<g>
				<g>
					<path class="st1" d="M-119.7,116.3l-33.2-33.2l33.2-33.2l33.2,33.2L-119.7,116.3z M-144.8,83.1l25.1,25.1l25.1-25.1l-25.1-25.1
						L-144.8,83.1z"/>
				</g>
			</g>
		</g>
		<g>
			<g>
				<g>
					
						<rect x="-125.3" y="78.7" transform="matrix(0.7071 -0.7071 0.7071 0.7071 -94.1828 -61.1209)" class="st1" width="8.8" height="8.8"/>
				</g>
			</g>
		</g>
		<g>
			<g>
				<g>
					<path class="st1" d="M-177.8,207.4l-66.2-66.2l66.2-66.2l66.2,66.2L-177.8,207.4z M-227.9,141.2l50.1,50.1l50.1-50.1
						l-50.1-50.1L-227.9,141.2z"/>
				</g>
			</g>
		</g>
		<g>
			<g>
				<g>
					<path class="st1" d="M-177.8,174.4l-33.2-33.2l33.2-33.2l33.2,33.2L-177.8,174.4z M-203,141.2l25.1,25.1l25.1-25.1l-25.1-25.1
						L-203,141.2z"/>
				</g>
			</g>
		</g>
		<g>
			<g>
				<g>
					
						<rect x="171.2" y="263.4" transform="matrix(0.7071 -0.7071 0.7071 0.7071 -137.9198 202.6124)" class="st1" width="8.8" height="8.8"/>
				</g>
			</g>
		</g>
		<g>
			<g>
				<path class="st2" d="M15.2,545.4c0,0-170.6,70.1-238.2,130.1V545.3L15.2,545.4z"/>
			</g>
		</g>
	</g>
</g>
<g>
	<path class="st1" d="M17.3,399l20.5-0.3l20.5-0.2l41-0.4l82.1-0.6c27.4-0.2,54.7-0.2,82.1-0.3l82.1-0.2l82.1,0.2l41,0.1l20.5,0.1
		l20.5,0.1l82.1,0.6l41,0.4l20.5,0.2L674,399l-20.5,0.3l-20.5,0.2l-41,0.5l-82.1,0.6l-20.5,0.1l-20.5,0.1l-41,0.1l-82.1,0.2
		l-82.1-0.2c-27.4-0.1-54.7,0-82.1-0.3L99.4,400l-41-0.4l-20.5-0.2L17.3,399z"/>
</g>
<g>
	<path d="M253.8,46.6c20.1,0,27.8,11.8,27.8,30.3v12.2c0,16.6-6.6,25.7-21.4,28.4c15,2.3,21.4,12.2,21.4,27v21.2
		c0,5.2,0.6,11.8,3.7,16h-4.6c-2.7-4.2-3.3-10.2-3.3-16v-21.2c0-19.9-12-25.1-29.5-25.1h-16.6v62.3H227v-135L253.8,46.6L253.8,46.6z
		 M247.8,115.3c18.7,0,29.5-4.8,29.5-25.7V77.3c0-16.4-6.4-26.6-23.7-26.6h-22.4v64.6H247.8z"/>
</g>
<g>
	<path d="M304.6,46.6v135h-4.2v-135C300.4,46.6,304.6,46.6,304.6,46.6z"/>
</g>
<g>
	<path d="M376.3,79.8v10.4h-4.2V79.6c0-16.4-6.2-30.1-23.9-30.1c-17.9,0-24.1,13.7-24.1,30.1v69.1c0,16.4,6.2,29.9,24.1,29.9
		c17.7,0,23.9-13.5,23.9-29.9v-14.9h4.2v14.7c0,18.7-7.7,34.1-28.4,34.1c-20.4,0-28.2-15.4-28.2-34.1V79.8
		c0-18.7,7.7-34.1,28.2-34.1C368.6,45.6,376.3,61.1,376.3,79.8z"/>
</g>
<g>
	<path d="M402.6,149.8l-7.9,31.8h-3.9l32.6-135.2h6l33.4,135.2h-4.2l-7.9-31.8H402.6z M403.3,146h46.5l-23.5-94.5L403.3,146z"/>
</g>
<g>
	<path d="M504.4,46.6c20.1,0,27.8,11.8,27.8,30.3v12.2c0,16.6-6.6,25.7-21.4,28.4c15,2.3,21.4,12.2,21.4,27v21.2
		c0,5.2,0.6,11.8,3.7,16h-4.6c-2.7-4.2-3.3-10.2-3.3-16v-21.2c0-19.9-12-25.1-29.5-25.1h-16.6v62.3h-4.2v-135L504.4,46.6L504.4,46.6
		z M498.5,115.3c18.7,0,29.5-4.8,29.5-25.7V77.3c0-16.4-6.4-26.6-23.7-26.6h-22.4v64.6H498.5z"/>
</g>
<g>
	<path d="M579.1,46.6c20.6,0,29.3,14.5,29.3,33.8v67.7c0,19.1-8.7,33.6-29.1,33.6h-28.4v-135L579.1,46.6L579.1,46.6z M579.1,177.6
		c18.1,0,25.1-12.5,25.1-29.3V80.2c0-17-7.1-29.5-25.1-29.5h-23.9v126.9H579.1z"/>
</g>
<g>
	<path d="M618.4,79.8c0-22.4,9.8-34.1,28.6-34.1c19.1,0,28.9,11.8,28.9,34.1v68.7c0,22.4-9.8,34.1-28.9,34.1
		c-18.7,0-28.6-11.8-28.6-34.1V79.8z M622.6,148.7c0,19.9,8.3,30.1,24.3,30.1c16.2,0,24.7-10.2,24.7-30.1V79.6
		c0-19.9-8.5-30.1-24.7-30.1c-16,0-24.3,10.2-24.3,30.1V148.7z"/>
</g>
<g>
	<path d="M46.7,455.9h-0.5l-8.4-23.3l-8.3,23.3H29l-9.9-27.3c-0.4-1.1-0.8-2-1.3-2.5c-0.5-0.6-1.1-0.9-2-0.9v-0.3H23v0.3
		c-0.7,0-1.1,0.3-1.1,0.8c0,0.3,0.1,0.8,0.3,1.4l8.1,22.2l6.6-18.8l-0.6-1.8c-0.6-1.6-1.1-2.6-1.6-3.1s-1.1-0.7-1.8-0.7v-0.3H40v0.3
		c-0.7,0-1,0.3-1,0.9c0,0.2,0.1,0.7,0.4,1.4l8.1,22.1l8.1-22.5c0-0.1,0-0.1,0-0.1l0.3-1.1c0-0.5-0.4-0.8-1.1-0.8v-0.3h4.5v0.3
		c-1.2,0-2.2,1-2.9,3L46.7,455.9z"/>
	<path d="M61.1,425.2v-0.4h19.2v4.2H80c-0.4-1.6-0.8-2.5-1-2.8c-0.3-0.3-1-0.4-2.1-0.4H66.8v13.7h9.3c0.9,0,1.5-0.1,1.8-0.3
		c0.2-0.2,0.4-0.4,0.4-0.8h0.3v2.9h-0.3c-0.1-0.4-0.2-0.7-0.5-0.8c-0.3-0.1-0.7-0.2-1.4-0.2h-9.6v9.4c0,1.4,0.1,2.4,0.4,3.1
		c0.3,0.6,0.7,1,1.3,1.2c0.6,0.2,1.4,0.2,2.6,0.2h5.4c1.7,0,2.8-0.1,3.3-0.2s0.9-0.3,1.2-0.7c0.3-0.3,0.6-1.1,0.8-2.3H82v4.2H61.1
		v-0.3c0.7,0,1.2-0.2,1.6-0.4c0.4-0.2,0.5-0.8,0.5-1.8v-24.6c0-1.1-0.1-1.9-0.3-2.4C62.8,425.4,62.2,425.2,61.1,425.2z"/>
	<path d="M84.2,425.2v-0.3h7.9c2.3,0,4,0.1,4.9,0.3c1,0.2,1.9,0.6,2.8,1.1s1.6,1.3,2.3,2.4c0.6,1,0.9,2.2,0.9,3.5
		c0,2.6-1.3,4.6-3.8,6.1c2.2,0.4,3.9,1.3,5,2.7c1.1,1.4,1.7,3.2,1.7,5.3c0,1.9-0.5,3.7-1.4,5.2c-1,1.6-2.1,2.6-3.3,3.1
		c-1.2,0.5-3,0.8-5.2,0.8H84.2v-0.3c0.9,0,1.5-0.2,1.8-0.6s0.4-1.4,0.4-2.9v-23c0-1.1,0-1.9-0.1-2.3s-0.3-0.7-0.6-0.9
		C85.3,425.3,84.8,425.2,84.2,425.2z M89.9,425.5v13.4h3.7c2.5,0,4.2-0.7,5-2.2c0.8-1.4,1.2-2.9,1.2-4.3c0-1.5-0.3-2.8-1-3.8
		c-0.6-1-1.6-1.8-2.8-2.3c-1.2-0.5-3-0.8-5.4-0.8L89.9,425.5L89.9,425.5z M92.3,439.6h-2.4v9.7c0,1.3,0.1,2.2,0.2,2.6
		s0.3,0.8,0.7,1.3c0.4,0.4,1,0.8,1.8,1.1c0.8,0.3,2,0.4,3.5,0.4c2.4,0,4.1-0.6,5-1.6c1-1.1,1.5-2.7,1.5-4.9c0-2.2-0.4-4.1-1.3-5.5
		s-1.9-2.3-3-2.6C97.2,439.7,95.2,439.6,92.3,439.6z"/>
	<path d="M121.2,425.2v-0.3h14c3.6,0,6.4,0.3,8.4,0.8c2.1,0.6,3.9,1.4,5.4,2.6s2.8,2.7,3.6,4.6c0.9,1.9,1.3,4,1.3,6.3
		c0,2.2-0.5,4.4-1.4,6.6c-0.9,2.1-2.2,4-3.8,5.6s-3.3,2.6-5.1,3.2s-4.5,0.9-8.2,0.9h-14.3v-0.3h0.4c0.7,0,1.2-0.3,1.5-0.9
		c0.2-0.6,0.4-1.7,0.4-3.3v-22.2c0-1.7-0.1-2.7-0.4-3C122.7,425.3,122.1,425.2,121.2,425.2z M131.6,425.5h-4.7v23.7
		c0,1.5,0.3,2.6,0.8,3.3c0.5,0.7,1.4,1.2,2.6,1.6c1.2,0.3,2.9,0.5,4.9,0.5c5.7,0,9.7-1.5,12.1-4.4c2.3-2.9,3.5-6.1,3.5-9.6
		c0-4.1-1.6-7.6-4.8-10.6C142.8,427,138,425.5,131.6,425.5z"/>
	<path d="M157.1,425.2v-0.4h19.2v4.2H176c-0.4-1.6-0.8-2.5-1-2.8c-0.3-0.3-1-0.4-2.1-0.4h-10.1v13.7h9.3c0.9,0,1.5-0.1,1.8-0.3
		c0.2-0.2,0.4-0.4,0.4-0.8h0.3v2.9h-0.3c-0.1-0.4-0.2-0.7-0.5-0.8c-0.3-0.1-0.7-0.2-1.4-0.2h-9.6v9.4c0,1.4,0.1,2.4,0.4,3.1
		c0.3,0.6,0.7,1,1.3,1.2s1.4,0.2,2.6,0.2h5.4c1.7,0,2.8-0.1,3.3-0.2s0.9-0.3,1.2-0.7c0.3-0.3,0.6-1.1,0.8-2.3h0.3v4.2h-20.9v-0.3
		c0.7,0,1.2-0.2,1.6-0.4c0.4-0.2,0.5-0.8,0.5-1.8v-24.6c0-1.1-0.1-1.9-0.3-2.4S158.1,425.2,157.1,425.2z"/>
	<path d="M194.7,425.3l1.5,3.8H196c0,0-0.4-0.4-1.2-1.2c-0.8-0.8-1.6-1.4-2.6-1.9c-1-0.4-2.1-0.7-3.3-0.7c-2.1,0-3.7,0.6-5,1.8
		c-1.2,1.2-1.8,2.6-1.8,4.3c0,1.1,0.3,2.1,0.9,2.9c0.6,0.8,1.8,1.6,3.6,2.3c3.1,1.1,5.3,1.9,6.4,2.4c1.2,0.5,2.3,1.4,3.3,2.7
		c1.1,1.3,1.6,2.9,1.6,4.9c0,0.8-0.1,1.6-0.3,2.4s-0.5,1.5-0.9,2.2s-0.9,1.3-1.5,1.9s-1.2,1-1.8,1.3s-1.6,0.5-2.9,0.7
		c-1.3,0.2-2.2,0.2-2.7,0.2h-8.1v-8.9h0.3c0,2.9,0.7,5,2.1,6.2c1.4,1.2,3.5,1.7,6.3,1.7c2.6,0,4.6-0.6,5.9-1.8c1.3-1.2,2-2.7,2-4.4
		c0-1.1-0.2-1.9-0.7-2.7c-0.5-0.7-1.1-1.4-2-1.9c-0.8-0.6-2.4-1.2-4.8-2c-2.3-0.8-4-1.5-4.9-2.2c-0.9-0.6-1.7-1.5-2.4-2.8
		c-0.6-1.2-1-2.5-1-3.8c0-2.4,0.8-4.3,2.4-5.9c1.6-1.6,3.8-2.4,6.4-2.4c1,0,2.1,0.1,3.3,0.4C193.8,425,194.5,425.2,194.7,425.3
		C194.6,425.2,194.6,425.3,194.7,425.3z"/>
	<path d="M208.3,424.9v0.3c-0.4,0-0.8,0-1.3,0.2s-0.8,0.4-0.9,0.7c-0.1,0.3-0.1,1.1-0.1,2.3v23.4c0,1.3,0.1,2,0.2,2.3
		c0.1,0.3,0.3,0.5,0.6,0.7s0.8,0.3,1.6,0.3v0.3h-8.1v-0.3c1,0,1.7-0.2,1.9-0.6s0.4-1.3,0.4-2.7v-23.2c0-1.5-0.1-2.4-0.4-2.8
		c-0.3-0.4-0.9-0.6-1.9-0.6v-0.3L208.3,424.9L208.3,424.9z"/>
	<path d="M241.3,455.1v0.3H229c-2.4,0-4.4-0.3-6.2-0.8s-3.6-1.5-5.4-2.9c-1.8-1.4-3.3-3.2-4.5-5.3c-1.1-2.1-1.7-4.3-1.7-6.5
		c0-2.4,0.7-4.9,2.1-7.3c1.4-2.4,3.5-4.4,6.1-5.9s5.6-2.3,9-2.3c3,0,6.2,0.7,9.5,2l1.3,3.5h-0.3c-1.1-1.4-2.5-2.5-4.4-3.4
		c-1.8-0.9-3.9-1.3-6.2-1.3c-3.9,0-7.2,1.5-9.7,4.4c-2.5,3-3.8,6.6-3.8,11c0,1.8,0.2,3.5,0.6,4.9c0.4,1.4,1.2,2.8,2.3,4.2
		c1.1,1.4,2.4,2.4,3.7,3.1s2.8,1.1,4.4,1.4c1.6,0.3,2.9,0.4,3.9,0.3h1.6c1.9-0.1,3-0.2,3.5-0.5s0.7-1,0.7-2.1v-4.6
		c0-0.9-0.2-1.5-0.6-1.8c-0.4-0.3-0.9-0.4-1.6-0.4v-0.3h7.9v0.3c-0.9,0-1.5,0.2-1.8,0.5s-0.4,1-0.4,2v4.8c0,1,0.1,1.7,0.4,2.1
		c0.3,0.4,0.7,0.6,1.4,0.6L241.3,455.1L241.3,455.1z"/>
	<path d="M268.7,424.9h5.9v0.3c-0.9,0-1.5,0.2-1.9,0.6c-0.3,0.4-0.5,1.1-0.5,2.2v27.8l-24.4-25.9v22.6c0,0.7,0.1,1.2,0.2,1.6
		c0.1,0.3,0.3,0.6,0.5,0.7s0.7,0.2,1.6,0.4v0.3h-5.9v-0.3c1.1,0,1.7-0.2,2-0.6s0.4-1.3,0.4-2.7v-20.6c0-1.8-0.3-3.3-0.8-4.4
		s-1.7-1.7-3.5-1.6V425h5.7l22.9,24.4v-21.5c0-1.2-0.2-1.9-0.6-2.1c-0.4-0.3-0.9-0.4-1.6-0.4V424.9z"/>
	<path d="M277.7,425.2v-0.4h19.2v4.2h-0.3c-0.4-1.6-0.8-2.5-1-2.8c-0.3-0.3-1-0.4-2.1-0.4h-10.1v13.7h9.3c0.9,0,1.5-0.1,1.8-0.3
		c0.2-0.2,0.4-0.4,0.4-0.8h0.3v2.9h-0.3c-0.1-0.4-0.2-0.7-0.5-0.8c-0.3-0.1-0.7-0.2-1.4-0.2h-9.6v9.4c0,1.4,0.1,2.4,0.4,3.1
		c0.3,0.6,0.7,1,1.3,1.2c0.6,0.2,1.4,0.2,2.6,0.2h5.4c1.7,0,2.8-0.1,3.3-0.2s0.9-0.3,1.2-0.7c0.3-0.3,0.6-1.1,0.8-2.3h0.3v4.2h-20.9
		v-0.3c0.7,0,1.2-0.2,1.6-0.4c0.4-0.2,0.5-0.8,0.5-1.8v-24.6c0-1.1-0.1-1.9-0.3-2.4C279.4,425.4,278.8,425.2,277.7,425.2z"/>
	<path d="M300.7,425.2v-0.3h8.7c2.2,0,3.8,0,4.8,0.1s2,0.4,3,1c1,0.5,1.8,1.3,2.3,2.2c0.5,0.9,0.8,2.1,0.8,3.4c0,1.5-0.5,3-1.4,4.4
		s-2.2,2.6-3.9,3.6l2.2,3.3c0.5,0.8,1.7,2.6,3.7,5.4s3.6,4.5,4.7,5.1s2.2,0.9,3.2,0.9s2.2-0.4,3.5-1.2l0.1,0.4c-1.7,1.4-3.8,2-6.5,2
		c-1.8,0-3.3-0.5-4.6-1.6c-1.3-1-3.5-3.9-6.6-8.6v-0.1l-3.1-4.7l-2.7,0.1h-2.5v11.7c0,0.9,0.1,1.6,0.4,2c0.2,0.4,0.8,0.6,1.8,0.6
		v0.3h-7.9v-0.3c1,0,1.6-0.2,1.8-0.6c0.2-0.4,0.4-1.1,0.4-2.3v-24.3c0-0.8-0.1-1.4-0.3-2C302.4,425.5,301.8,425.2,300.7,425.2z
		 M306.4,425.7V440h3.2c2.5,0,4.4-0.6,5.6-1.8c1.2-1.2,1.8-2.8,1.8-4.7c0-1.9-0.6-3.7-1.8-5.3c-1.2-1.7-3.3-2.5-6.3-2.5H306.4z"/>
	<path d="M365.2,426.4l1.3,3.5H366c-1.1-1.4-2.4-2.5-3.9-3.3c-1.5-0.9-3-1.3-4.4-1.3c-1.3,0-2.3,0.4-2.9,1.1s-1,1.6-1,2.5
		c0,1.7,1.4,3.8,4.1,6.5l13.5,13.4c1-1.4,1.7-3.1,2.1-5.2s0.6-3.8,0.6-4.9c0-0.9-0.2-1.4-0.6-1.6s-1-0.4-1.9-0.4h-0.3h-0.7v-0.4h6.5
		v0.4c-0.7-0.1-1.2,0.1-1.4,0.6c-0.2,0.5-0.5,1.5-0.7,3c-0.6,4.1-1.6,7.2-3,9.2l3.1,3.1c1.5,1.5,3,2.2,4.6,2.2
		c1.1,0,2.3-0.4,3.5-1.1l0.2,0.3c-1.9,1.3-3.9,2-6,2c-2.3,0-4.4-0.9-6.2-2.8c0-0.1-0.1-0.2-0.2-0.3l-1-1c-2.9,2.7-6.6,4.1-11.1,4.1
		c-4.4,0-7.6-1.1-9.8-3.4c-2.1-2.2-3.2-4.7-3.2-7.4c0-2.3,0.7-4.4,2.2-6.1s3.4-2.8,5.9-3.3c-0.7-1-1.3-2-1.6-2.8
		c-0.4-0.8-0.6-1.7-0.6-2.7c0-1.5,0.5-2.9,1.6-4.1s2.8-1.8,5.1-1.8c1.4,0,2.5,0.2,3.6,0.5C363,425.3,364.1,425.8,365.2,426.4z
		 M369.3,451.2L357.7,440c-0.1-0.1-0.6-0.6-1.5-1.5s-1.5-1.6-1.8-2c-4.2,1-6.2,3-6.2,6.2c0,2.9,1.3,5.5,4,8c2.7,2.4,5.7,3.7,9.2,3.7
		c1.8,0,3.2-0.2,4.2-0.7s2.1-1.2,3.4-2.2c0.1-0.1,0.1-0.1,0.2-0.1C369.3,451.3,369.3,451.3,369.3,451.2z"/>
	<path d="M405.4,424.9v0.3c-0.4,0-0.8,0-1.3,0.2s-0.8,0.4-0.9,0.7c-0.1,0.3-0.1,1.1-0.1,2.3v23.4c0,1.3,0.1,2,0.2,2.3
		s0.3,0.5,0.6,0.7c0.3,0.2,0.8,0.3,1.6,0.3v0.3h-8.1v-0.3c1,0,1.7-0.2,1.9-0.6c0.2-0.4,0.4-1.3,0.4-2.7v-23.2c0-1.5-0.1-2.4-0.4-2.8
		s-0.9-0.6-1.9-0.6v-0.3L405.4,424.9L405.4,424.9z"/>
	<path d="M407.4,455.4v-0.3c1,0,1.6-0.2,1.9-0.5c0.3-0.4,0.4-1,0.4-1.8v-25c0-0.9-0.1-1.5-0.3-1.9c-0.2-0.4-0.9-0.6-2-0.6V425h8.2
		v0.3c-0.8,0-1.3,0.1-1.6,0.3c-0.3,0.2-0.5,0.4-0.6,0.7c-0.1,0.3-0.1,0.9-0.1,1.8v21.4c0,1.8,0.4,3.1,1.3,3.9s2.4,1.1,4.5,1.1h3.7
		c1.8,0,3.1-0.4,3.9-1.3s1.3-2.5,1.4-5h0.3v7.3L407.4,455.4L407.4,455.4L407.4,455.4z"/>
	<path d="M430.4,455.4v-0.3c1,0,1.6-0.2,1.9-0.5c0.3-0.4,0.4-1,0.4-1.8v-25c0-0.9-0.1-1.5-0.3-1.9c-0.2-0.4-0.9-0.6-2-0.6V425h8.2
		v0.3c-0.8,0-1.3,0.1-1.6,0.3c-0.3,0.2-0.5,0.4-0.6,0.7c-0.1,0.3-0.1,0.9-0.1,1.8v21.4c0,1.8,0.4,3.1,1.3,3.9s2.4,1.1,4.5,1.1h3.7
		c1.8,0,3.1-0.4,3.9-1.3s1.3-2.5,1.4-5h0.3v7.3L430.4,455.4L430.4,455.4L430.4,455.4z"/>
	<path d="M481.3,455.4h-5.8v-4.7c-2.9,3.3-6.4,4.9-10.5,4.9c-3,0-5.4-0.8-7.2-2.5c-1.8-1.7-2.7-4-2.7-7v-18.3c0-1.1-0.1-1.8-0.4-2.1
		c-0.3-0.3-0.9-0.4-1.8-0.4V425h8.1v0.3c-0.9,0-1.5,0.1-1.8,0.4c-0.4,0.3-0.5,0.9-0.5,1.9v16.8c0,3.5,0.8,6,2.5,7.5
		c1.6,1.5,3.5,2.2,5.6,2.2c3.3,0,6.2-1.5,8.8-4.5v-20.7c0-1.8-0.2-2.9-0.5-3.2c-0.3-0.3-0.8-0.5-1.5-0.5h-0.3v-0.3h8v0.3
		c-1,0.1-1.6,0.2-1.9,0.5s-0.4,0.8-0.4,1.6v24.9c0,1,0,1.6,0.1,1.9s0.3,0.6,0.6,0.8c0.3,0.2,0.8,0.3,1.5,0.3L481.3,455.4
		L481.3,455.4z"/>
	<path d="M499.4,425.3l1.5,3.8h-0.2c0,0-0.4-0.4-1.2-1.2c-0.8-0.8-1.6-1.4-2.6-1.9c-1-0.4-2.1-0.7-3.3-0.7c-2.1,0-3.7,0.6-5,1.8
		c-1.2,1.2-1.8,2.6-1.8,4.3c0,1.1,0.3,2.1,0.9,2.9s1.8,1.6,3.6,2.3c3.1,1.1,5.3,1.9,6.4,2.4c1.2,0.5,2.3,1.4,3.3,2.7
		c1.1,1.3,1.6,2.9,1.6,4.9c0,0.8-0.1,1.6-0.3,2.4c-0.2,0.8-0.5,1.5-0.9,2.2s-0.9,1.3-1.5,1.9s-1.2,1-1.8,1.3
		c-0.6,0.3-1.6,0.5-2.9,0.7s-2.2,0.2-2.7,0.2h-8.1v-8.9h0.3c0,2.9,0.7,5,2.1,6.2s3.5,1.7,6.3,1.7c2.6,0,4.6-0.6,5.9-1.8
		c1.3-1.2,2-2.7,2-4.4c0-1.1-0.2-1.9-0.7-2.7c-0.5-0.7-1.1-1.4-2-1.9c-0.8-0.6-2.4-1.2-4.8-2c-2.3-0.8-4-1.5-4.9-2.2
		c-0.9-0.6-1.7-1.5-2.4-2.8c-0.6-1.2-1-2.5-1-3.8c0-2.4,0.8-4.3,2.4-5.9s3.8-2.4,6.4-2.4c1,0,2.1,0.1,3.3,0.4c1.2,0.2,1.9,0.4,2,0.5
		C499.3,425.2,499.3,425.3,499.4,425.3z"/>
	<path d="M529.1,423.8l-1.5,3.7h-0.3c0.1-0.2,0.1-0.5,0.1-0.9c0-0.3-0.1-0.5-0.3-0.6s-0.6-0.1-1.1-0.1h-8V452c0,1.1,0.1,1.8,0.3,2.2
		c0.2,0.4,0.4,0.6,0.7,0.7s0.8,0.2,1.4,0.2v0.3h-8.3v-0.3c1-0.1,1.7-0.3,1.9-0.6s0.4-1,0.4-2.1v-26.6h-7.6c-0.8,0-1.3,0-1.5,0.1
		s-0.4,0.3-0.4,0.7c0,0.2,0.1,0.5,0.2,0.8h-0.3l-1.5-3.7h0.3c0.2,0.5,0.5,0.8,0.7,0.9s0.8,0.2,1.6,0.2h20.3c0.8,0,1.4-0.1,1.7-0.2
		c0.4-0.1,0.6-0.4,0.8-0.9L529.1,423.8L529.1,423.8z"/>
	<path d="M530.7,425.2v-0.3h8.7c2.2,0,3.8,0,4.8,0.1s2,0.4,3,1c1,0.5,1.8,1.3,2.3,2.2c0.5,0.9,0.8,2.1,0.8,3.4c0,1.5-0.5,3-1.4,4.4
		s-2.2,2.6-3.9,3.6l2.2,3.3c0.5,0.8,1.7,2.6,3.7,5.4s3.6,4.5,4.7,5.1c1.1,0.6,2.2,0.9,3.2,0.9s2.2-0.4,3.5-1.2l0.1,0.4
		c-1.7,1.4-3.8,2-6.5,2c-1.8,0-3.3-0.5-4.6-1.6c-1.3-1-3.5-3.9-6.6-8.6v-0.1l-3.1-4.7l-2.7,0.1h-2.5v11.7c0,0.9,0.1,1.6,0.4,2
		c0.2,0.4,0.8,0.6,1.8,0.6v0.3h-7.9v-0.3c1,0,1.6-0.2,1.8-0.6s0.4-1.1,0.4-2.3v-24.3c0-0.8-0.1-1.4-0.3-2
		C532.4,425.5,531.8,425.2,530.7,425.2z M536.4,425.7V440h3.2c2.5,0,4.4-0.6,5.6-1.8c1.2-1.2,1.8-2.8,1.8-4.7c0-1.9-0.6-3.7-1.8-5.3
		c-1.2-1.7-3.3-2.5-6.3-2.5H536.4z"/>
	<path d="M580.5,441.3h-9l-4.6,11.5c-0.3,0.8-0.5,1.3-0.5,1.5c0,0.5,0.3,0.7,1,0.7v0.3h-4.5V455c0.6,0,1.1-0.1,1.5-0.4
		s0.9-1.1,1.4-2.3l11.1-27.9h0.5l10.9,27c0,0.1,0.3,0.8,0.8,2c0.6,1.2,1.4,1.8,2.6,1.8v0.3h-7.1v-0.3c0.6,0,1-0.3,1-0.8
		c0-0.3-0.2-0.9-0.5-1.7c-0.1-0.1-0.1-0.1-0.1-0.3c0-0.1,0-0.2-0.1-0.2L580.5,441.3z M571.8,440.5h8.3l-4.1-10.4L571.8,440.5z"/>
	<path d="M613.8,423.8l-1.5,3.7H612c0.1-0.2,0.1-0.5,0.1-0.9c0-0.3-0.1-0.5-0.3-0.6s-0.6-0.1-1.1-0.1h-8V452c0,1.1,0.1,1.8,0.3,2.2
		c0.2,0.4,0.4,0.6,0.7,0.7s0.8,0.2,1.4,0.2v0.3h-8.3v-0.3c1-0.1,1.7-0.3,1.9-0.6s0.4-1,0.4-2.1v-26.6h-7.6c-0.8,0-1.3,0-1.5,0.1
		s-0.4,0.3-0.4,0.7c0,0.2,0.1,0.5,0.2,0.8h-0.3l-1.5-3.7h0.3c0.2,0.5,0.5,0.8,0.7,0.9s0.8,0.2,1.6,0.2H611c0.8,0,1.4-0.1,1.7-0.2
		c0.4-0.1,0.6-0.4,0.8-0.9L613.8,423.8L613.8,423.8z"/>
	<path d="M630.7,424.4c4.3,0,7.8,1.3,10.5,3.9s4.1,5.9,4.1,9.8c0,5-1.6,9.2-4.7,12.7c-3.2,3.4-7.3,5.1-12.5,5.1
		c-4.2,0-7.7-1.4-10.4-4.1s-4-6.1-4-9.9c0-2.6,0.6-5.3,1.9-8c1.3-2.8,3.3-5,5.9-6.7C624,425.3,627.1,424.4,630.7,424.4z
		 M630.5,454.3c2.1,0,4.2-0.6,6.2-1.7s3.7-2.7,4.8-4.7s1.8-4,1.8-6.1c0-3-0.8-5.6-2.4-8.1c-1.6-2.4-3.6-4.3-6.2-5.7
		c-2.5-1.4-4.9-2.1-7-2.1c-3,0-5.8,1.1-8.2,3.4c-2.5,2.3-3.7,5.1-3.7,8.5c0,4.3,1.5,8.1,4.5,11.4
		C623.4,452.6,626.8,454.3,630.5,454.3z"/>
	<path d="M648.3,425.2v-0.3h8.7c2.2,0,3.8,0,4.8,0.1s2,0.4,3,1c1,0.5,1.8,1.3,2.3,2.2c0.5,0.9,0.8,2.1,0.8,3.4c0,1.5-0.5,3-1.4,4.4
		s-2.2,2.6-3.9,3.6l2.2,3.3c0.5,0.8,1.7,2.6,3.7,5.4s3.6,4.5,4.7,5.1c1.1,0.6,2.2,0.9,3.2,0.9s2.2-0.4,3.5-1.2l0.1,0.4
		c-1.7,1.4-3.8,2-6.5,2c-1.8,0-3.3-0.5-4.6-1.6c-1.3-1-3.5-3.9-6.6-8.6v-0.1l-3.1-4.7l-2.7,0.1H654v11.7c0,0.9,0.1,1.6,0.4,2
		c0.2,0.4,0.8,0.6,1.8,0.6v0.3h-7.9v-0.3c1,0,1.6-0.2,1.8-0.6s0.4-1.1,0.4-2.3v-24.3c0-0.8-0.1-1.4-0.3-2
		C650,425.5,649.4,425.2,648.3,425.2z M654.1,425.7V440h3.2c2.5,0,4.4-0.6,5.6-1.8c1.2-1.2,1.8-2.8,1.8-4.7c0-1.9-0.6-3.7-1.8-5.3
		c-1.2-1.7-3.3-2.5-6.3-2.5H654.1z"/>
</g>
<g>
	<g>
		<path class="st3" d="M94.8,530.3"/>
	</g>
</g>
<polygon class="st4" points="887.3,59.1 203.4,59.1 203.4,-270.7 809.7,-270.6 887.3,-270.7 "/>
<g>
	<g>
		<path d="M203.5,379.4c0-122.4,0-326.8,0-329.9S-0.1,156.3,19,246.3c20.3,95.5,111.4,73.1,125.6,62.8c18-13.1,18-11.4,32.7-32.7
			c0,0,0,102.9-116,102.9L203.5,379.4z"/>
	</g>
</g>
<g>
	<path d="M251.9,247.2h-0.5v129.2h-25.2V198.1h35.2l28.3,106.7h0.5V198.1h25v178.3h-28.8L251.9,247.2z"/>
	<path d="M425.8,376.4h-28.3l-4.8-32.4h-34.4l-4.8,32.4h-25.7l28.5-178.3h41L425.8,376.4z M361.9,319.8h27l-13.2-90.2h-0.5
		L361.9,319.8z"/>
	<path d="M436.3,240.9c0-28.5,15-44.8,42.5-44.8s42.5,16.3,42.5,44.8v92.7c0,28.5-15,44.8-42.5,44.8s-42.5-16.3-42.5-44.8V240.9z
		 M464.3,335.4c0,12.7,5.6,17.6,14.5,17.6s14.5-4.8,14.5-17.6v-96.3c0-12.7-5.6-17.6-14.5-17.6s-14.5,4.8-14.5,17.6V335.4z"/>
	<path d="M576.1,305.3l-8.7,16.3v54.8h-28V198.1h28v77.2h0.5l36.2-77.2h28l-39,79.5l39,98.8h-28.8L576.1,305.3z"/>
	<path d="M644.9,198.1h28v178.3h-28V198.1z"/>
</g>
</svg>
